<svg version="1.1" id="Layer_1" xmlns="http://www.w3.org/2000/svg" xmlns:xlink="http://www.w3.org/1999/xlink" x="0px" y="0px" viewBox="0 0 341.1 86" style="enable-background:new 0 0 341.1 86;" xml:space="preserve">
 <style type="text/css">
  .st0{clip-path:url(#SVGID_2_);fill:none;stroke:#0E0E18;stroke-width:0.5931;}
	.st1{clip-path:url(#SVGID_2_);fill:#009845;}
	.st2{clip-path:url(#SVGID_2_);fill:#0E0E18;}
	.st3{clip-path:url(#SVGID_2_);fill:none;stroke:#0E0E18;stroke-width:0.8896;}
 </style>
 <g>
  <g>
   <defs>
    <rect id="SVGID_1_" width="341.1" height="86">
    </rect>
   </defs>
   <clipPath id="SVGID_2_">
    <use href="#SVGID_1_" style="overflow:visible;">
    </use>
   </clipPath>
   <path class="st0" d="M128.5,11.7c-29.4,1.4-46.2,51.2-0.4,64.2">
   </path>
   <path class="st0" d="M128.5,11.7c-25.9-0.6-40.8,51.7-0.4,64.2">
   </path>
   <path class="st0" d="M128.5,11.7c-26.3,5.9-31.7,52.9-0.4,64.2">
   </path>
   <path class="st0" d="M128.5,11.7c-21.2,11.2-21.3,51.2-0.4,64.2">
   </path>
   <path class="st0" d="M128.2,75.9c-9.2-15.4-12.9-51,0.4-64.2">
   </path>
   <path class="st0" d="M128.5,11.7c29.8,1.6,46.6,50.8-0.4,64.2">
   </path>
   <path class="st0" d="M128.5,11.7c23.8,0,41.9,49.4,2.1,64.2">
   </path>
   <path class="st0" d="M128.5,11.7c26.3,6.1,32.3,54.9-0.4,64.2">
   </path>
   <path class="st0" d="M128.5,11.7c19.9,10.4,22.3,54.1-0.4,64.2">
   </path>
   <path class="st0" d="M128.2,75.9c13.6-11.5,11.4-50.9,0.4-64.2">
   </path>
   <path class="st0" d="M128.5,11.7c-1.3,1.6,2,58.2-0.4,64.2">
   </path>
   <path class="st0" d="M128.2,75.9c17.8,0,33.4-14.1,33.4-31.9c0-17.8-15.2-32.3-33-32.3c-17.8,0-31.4,14.5-31.4,32.3
			C97.1,61.8,110.4,75.9,128.2,75.9z">
   </path>
   <path class="st0" d="M119.9,13.1c2.6,3,10.9,4.9,16.3-0.4">
   </path>
   <path class="st0" d="M108.5,19.5c10.5,5.1,29.6,5.4,39.5-0.9">
   </path>
   <path class="st0" d="M102.7,26.2c10.1,4.9,38.8,7.5,51.3-2.4">
   </path>
   <path class="st0" d="M98.5,35.6c9,4.5,47.8,7.5,61.3-2.1">
   </path>
   <path class="st0" d="M97.2,46.3c18.2,8.8,49.8,6.9,63.9-3.2">
   </path>
   <path class="st0" d="M100.2,57c17.2,5.4,53.6,4.1,59.8-3.9">
   </path>
   <path class="st0" d="M106.4,66.5c6.4,3.4,37.4,2.8,46.6-1.3">
   </path>
   <path class="st1" d="M137.6,31.8c0.2,0.2,0,0.5,0.6,0.5c0,2.5,2.2,3.8,3.8,5.2c0.3,0.3,0.5,1.4,0.8,1.4c1.4,0,3-0.5,4.1-1.4
			c0.5,2.2-1.1,3.8-2.2,5.8c-0.8,1.6-3,2.5-4.4,3.8c-0.6,0.5-1.1,1.4-1.1,1.9c0.3,2.2,1.1,4.4,0.5,6.6c-0.5,1.1-2.5,1.4-3.6,2.5
			c-0.3,0.8,0.8,1.9,0.3,2.7c-0.6,0.3-1.6,0.5-1.6,1.1c-0.5,2.2-2.5,3.6-3.8,4.7c-1.4,1.1-3,0-4.7,0.8c-0.3,0-0.3-0.5-0.8-0.5
			c0-0.5,0.3-1.1,0-1.4c-0.8-2.5-1.4-4.9-2.5-7.7c0-0.6-0.5-1.1-0.5-1.6c-0.3-1.4,0-2.7,1.1-3.8c0.3-0.8-0.3-1.9-0.3-2.7
			c-0.3-0.6-1.1-1.1-1.1-1.6c0.3-0.5-0.3-0.8,0-1.1c-1.9-0.8-1.1-3-0.5-4.4c0-0.3-0.5-0.6-0.8-0.8c-0.5,0.6-1.1,0.3-1.6,0.3
			c0-0.8-0.8-1.4-1.4-1.6c-0.8,0-1.9,0.5-2.7,0.8c-1.4,0-2.5,0-3.8-0.3c-1.1,0-2.2-1.4-3-2.2c-0.8-1.1-1.1-2.2-1.6-3.3
			c-0.8-1.1,0-2.2,0.8-3.3c0.5-1.1,0-2.5,0.5-3.3c0.8-1.1,1.4-2.5,2.7-3c0.8-0.3,2.2-0.3,2.2-1.1c0.3-1.4,1.9-2.5,2.7-2.5
			c2.7-0.3,6.3-0.8,8.8,0.3c-0.5,0.8-0.8,2.2,0.3,2.5c1.1,0.3,1.4,0.8,2.2,1.4h0.8c0,0.3,0,0.5,0.3,0.5c1.1,0,0-1.4,0.8-1.6
			c1.9-0.3,3.8,2.5,5.5,0.8c0.3,0.3,0.5,0.3,0.8,0.3C136,28.2,136.3,30.4,137.6,31.8">
   </path>
   <path class="st1" d="M144.5,59.8c-0.4,0.8-0.3,1.6-1.1,1.9l0.3,0.3l-0.3,0.3l-0.3-0.3c-0.3,0-0.3,0.3-0.3,0.5H142
			c-0.3-1.1-1.1-1.9-0.5-3c0.8-0.8,0.5-1.9,0.8-2.7c0.6-1.4,2.7-1.4,3.3-3.3c0.8,0.6,0.5,1.6,0.5,2.5c-0.3,0-0.5,0-0.5,0.3
			C145.9,57.6,145.1,58.7,144.5,59.8">
   </path>
   <polyline class="st2" points="89.1,53 88.9,52.2 92.7,51.3 93.3,54.1 92.7,54.2 92.2,52.3 91.4,52.5 91.7,54.2 91,54.3 90.7,52.6 
					">
   </polyline>
   <path class="st2" d="M91.8,55.7c1.1-0.3,1.5,0.2,1.6,0.6c0.1,0.4,0.1,1.1-1,1.4c-1.1,0.3-1.5-0.2-1.6-0.6
			C90.6,56.7,90.7,56.1,91.8,55.7 M91.5,54.9c-1.8,0.6-1.6,2-1.4,2.4c0.2,0.5,0.8,1.7,2.6,1.2c1.8-0.6,1.6-2,1.4-2.4
			C93.9,55.6,93.3,54.4,91.5,54.9">
   </path>
   <polyline class="st2" points="95.7,60.6 96.1,61.3 92.5,62.9 92.1,62.2 94,59.5 94,59.5 91.5,60.7 91.1,60 94.7,58.4 95.1,59.2 
			93.2,61.7 93.2,61.7 		">
   </polyline>
   <path class="st2" d="M96.2,62.9l0.4,0.7c0.2,0.3,0.4,0.8-0.6,1.4c-0.6,0.3-1.3,0.5-1.6-0.1L94,64.2 M93,63.9l0.9,1.5
			c0.7,1.1,1.9,0.8,2.6,0.4c0.6-0.4,1.5-1.2,0.8-2.3l-0.9-1.5L93,63.9z">
   </path>
   <path class="st2" d="M96.5,67.2c-0.2,0.1-0.4,0.5,0,1.1c0.2,0.3,0.6,0.6,0.9,0.4c0.2-0.2,0.1-0.5,0-0.9l-0.2-0.4
			c-0.3-0.6-0.5-1.2,0.2-1.7c0.4-0.3,1.1-0.5,1.9,0.5c0.7,1,0.3,1.7-0.1,2l-0.5-0.6c0.1-0.1,0.4-0.4,0-1c-0.2-0.3-0.5-0.5-0.8-0.3
			c-0.2,0.2-0.2,0.4-0.1,0.6l0.4,0.9c0.2,0.5,0.3,1-0.2,1.5c-1,0.7-1.8-0.2-2-0.5c-0.8-1.2-0.3-1.9,0.1-2.1">
   </path>
   <path class="st2" d="M99,72.3l-0.6-0.6l3.8-1.7l0.7,0.7l-1.9,3.7l-0.6-0.6l0.4-0.7l-1-1 M100.4,71.6l0.7,0.7l0.8-1.4l0,0
			L100.4,71.6z">
   </path>
   <polyline class="st2" points="102.2,75.4 101.5,74.8 104.1,71.8 106.2,73.7 105.8,74.2 104.3,72.9 103.7,73.6 105,74.7 
			104.6,75.2 103.2,74.1 		">
   </polyline>
   <path class="st2" d="M106.2,75.8l0.6-0.9l0.8,0.6c0.4,0.3,0.3,0.6,0.2,0.8c-0.2,0.3-0.5,0.3-0.8,0.1 M104.3,77.1l0.7,0.5l0.9-1.3
			l0.7,0.5c0.5,0.3,0.4,0.5,0.1,1c-0.2,0.3-0.3,0.5-0.4,0.7L107,79l0.1-0.1c-0.1-0.2,0-0.3,0.3-0.7c0.4-0.6,0.3-0.8,0.2-1.1
			c0.4,0.1,0.8-0.1,1-0.4c0.2-0.3,0.5-1-0.4-1.6l-1.6-1.1L104.3,77.1z">
   </path>
   <polyline class="st2" points="108.4,79.8 107.7,79.4 109.7,76 110.4,76.5 		">
   </polyline>
   <path class="st2" d="M112.7,79.1c0-0.2,0.1-0.7-0.5-1c-0.4-0.2-1-0.2-1.5,0.8c-0.3,0.6-0.4,1.3,0.3,1.6c0.4,0.2,0.8,0.1,1.1-0.3
			l0.7,0.4c-0.5,0.7-1.3,1-2.2,0.5c-0.9-0.5-1.3-1.4-0.7-2.7c0.6-1.2,1.6-1.5,2.6-1.1c1.1,0.5,1.1,1.5,0.9,2">
   </path>
   <path class="st2" d="M115.6,79.9L115.6,79.9l-0.1,1.6l-0.9-0.4 M114.1,81.7l1.4,0.5l0,0.9l0.8,0.3l0.1-4.2l-0.9-0.3l-2.7,3.2
			l0.8,0.3L114.1,81.7z">
   </path>
   <polyline class="st2" points="117.7,83.8 116.9,83.6 118,79.8 118.8,80 		">
   </polyline>
   <polyline class="st2" points="121.8,80.7 122.6,80.9 121.7,84.7 120.9,84.6 119.9,81.5 119.9,81.5 119.3,84.2 118.6,84.1 
			119.4,80.2 120.3,80.4 121.2,83.4 121.2,83.4 		">
   </polyline>
   <path class="st2" d="M125.4,81.9l0.8,0.1c0.4,0,0.9,0.2,0.8,1.3c0,0.7-0.3,1.3-1,1.3l-0.8-0.1 M124.4,85.1l1.7,0.1
			c1.3,0.1,1.7-1.1,1.8-2c0-0.7-0.1-1.9-1.5-2l-1.7-0.1L124.4,85.1z">
   </path>
   <polyline class="st2" points="131.4,82 129.3,82.1 129.3,82.9 131.2,82.8 131.2,83.5 129.3,83.6 129.3,84.6 131.5,84.5 
			131.5,85.2 128.6,85.3 128.4,81.4 131.3,81.3 		">
   </polyline>
   <path class="st2" d="M134.3,81.6l0.8-0.1c0.3-0.1,0.9-0.1,1.1,1.1c0.1,0.6,0,1.3-0.7,1.5l-0.8,0.1 M134.1,85l1.7-0.3
			c1.3-0.2,1.4-1.5,1.3-2.3c-0.1-0.7-0.6-1.8-1.9-1.6l-1.7,0.3L134.1,85z">
   </path>
   <polyline class="st2" points="140.2,80.3 138.2,80.9 138.4,81.7 140.2,81.2 140.4,81.8 138.6,82.3 138.8,83.3 141,82.7 
			141.1,83.4 138.2,84.2 137.2,80.4 140,79.6 		">
   </polyline>
   <polyline class="st2" points="142.7,78.6 143.5,78.3 143.7,82.5 143,82.7 140.3,79.5 141.1,79.2 143,81.7 143,81.7 		">
   </polyline>
   <polyline class="st2" points="146.8,77.5 144.9,78.4 145.3,79.1 147,78.3 147.3,78.9 145.6,79.8 146.1,80.7 148,79.7 148.3,80.3 
			145.6,81.7 143.9,78.1 146.5,76.8 		">
   </polyline>
   <polyline class="st2" points="149.4,78.8 151.1,77.8 151.5,78.4 149.1,79.9 147,76.5 147.7,76.1 		">
   </polyline>
   <path class="st2" d="M151.5,76c-0.7-0.9-0.3-1.5,0-1.7c0.4-0.3,1-0.4,1.7,0.4c0.7,0.9,0.3,1.5,0,1.7
			C152.8,76.7,152.1,76.8,151.5,76 M150.8,76.5c1.1,1.5,2.4,0.8,2.8,0.5c0.4-0.3,1.4-1.3,0.2-2.8c-1.1-1.5-2.4-0.8-2.8-0.5
			C150.6,74,149.7,75,150.8,76.5">
   </path>
   <path class="st2" d="M154.9,73l-0.8-0.8l0.5-0.5c0.4-0.4,0.6-0.4,0.9-0.1c0.1,0.1,0.4,0.4,0,0.9 M155.3,73.5l0.7-0.7
			c0.8-0.7,0.3-1.5,0-1.8c-0.5-0.6-1.2-0.6-1.8-0.1l-1.3,1.2l2.7,2.9l0.6-0.6L155.3,73.5z">
   </path>
   <path class="st2" d="M157.5,70.3l-0.9-0.8l0.4-0.5c0.3-0.4,0.6-0.4,0.9-0.2c0.1,0.1,0.5,0.4,0.1,0.9 M158,70.8l0.6-0.7
			c0.7-0.8,0.1-1.5-0.1-1.8c-0.6-0.5-1.3-0.5-1.8,0.1l-1.2,1.4l3,2.6l0.5-0.6L158,70.8z">
   </path>
   <polyline class="st2" points="160.1,65.1 158.8,66.8 159.5,67.3 160.6,65.7 161.2,66.1 160.1,67.7 160.9,68.3 162.2,66.5 
			162.8,66.9 161,69.3 157.8,67.1 159.5,64.7 		">
   </polyline>
   <polyline class="st2" points="165.1,62.8 164.8,63.5 161.9,61.9 161.9,61.9 164.4,64.1 164,64.8 160.8,63.8 160.8,63.9 
			163.6,65.5 163.3,66.1 159.8,64.2 160.4,63.2 163.5,64 163.5,64 161.1,61.9 161.7,60.9 		">
   </polyline>
   <polyline class="st2" points="163.7,57.9 162.9,59.8 163.7,60.1 164.4,58.4 165,58.6 164.3,60.4 165.2,60.8 166.1,58.8 
			166.7,59.1 165.6,61.8 161.9,60.3 163.1,57.6 		">
   </polyline>
   <polyline class="st2" points="164,54.7 164.2,54 168,55.1 167.7,55.9 164.6,56.6 164.6,56.7 167.3,57.5 167,58.2 163.3,57.1 
			163.5,56.2 166.6,55.5 166.6,55.5 		">
   </polyline>
   <polyline class="st2" points="168.6,52.5 168.4,53.3 165.2,52.6 165,53.8 164.3,53.7 164.9,50.5 165.6,50.7 165.4,51.8 		">
   </polyline>
   <path class="st2" d="M94.6,21.9L94.6,21.9l1.6,0.3l-0.5,0.9 M96.2,23.6l0.7-1.3l0.8,0.2l0.4-0.8L94,21.1l-0.5,0.8l2.7,3.2l0.4-0.8
			L96.2,23.6z">
   </path>
   <polyline class="st2" points="98.9,20.7 98.4,21.4 95.2,19.1 96.8,16.8 97.4,17.2 96.3,18.8 97,19.3 98,17.9 98.6,18.3 97.6,19.7 
					">
   </polyline>
   <path class="st2" d="M99.3,16.6l-0.8-0.7l0.7-0.8c0.3-0.4,0.6-0.2,0.8-0.1c0.3,0.3,0.3,0.5,0,0.8 M100.4,18.6l0.5-0.6l-1.2-1
			l0.6-0.6c0.4-0.5,0.6-0.4,1,0c0.3,0.3,0.5,0.4,0.7,0.5l0.6-0.7l-0.1-0.1c-0.2,0.1-0.3,0-0.7-0.4c-0.6-0.5-0.8-0.4-1.1-0.3
			c0.2-0.4,0-0.8-0.3-1.1c-0.3-0.2-1-0.6-1.7,0.2L97.4,16L100.4,18.6z">
   </path>
   <polyline class="st2" points="103.6,15.1 103,15.7 100.2,12.9 100.8,12.3 		">
   </polyline>
   <path class="st2" d="M104.3,10.9c-0.2-0.1-0.6-0.4-1.1,0.1c-0.3,0.3-0.6,0.8,0.2,1.7c0.5,0.5,1.1,0.8,1.6,0.4
			c0.3-0.3,0.4-0.7,0.2-1.1l0.6-0.5c0.4,0.8,0.4,1.6-0.3,2.2c-0.8,0.7-1.8,0.6-2.7-0.4c-0.9-1-0.8-2.1,0-2.8
			c0.9-0.8,1.8-0.5,2.2-0.1">
   </path>
   <path class="st2" d="M106.7,8.6L106.7,8.6l1.3,1l-0.8,0.6 M107.4,10.9l1.2-0.8l0.7,0.5l0.7-0.5l-3.4-2.5l-0.8,0.5l1.1,4.1l0.7-0.5
			L107.4,10.9z">
   </path>
   <polyline class="st2" points="110.7,5.2 111.4,4.8 113.3,8.3 112.5,8.7 109.8,7 109.8,7 111.1,9.4 110.4,9.8 108.6,6.3 109.3,5.9 
			112,7.6 112,7.6 		">
   </polyline>
   <path class="st2" d="M115.1,4l0.7-0.3c0.3-0.1,0.9-0.2,1.3,0.9c0.2,0.6,0.2,1.3-0.4,1.5l-0.8,0.3 M115.4,7.3l1.6-0.6
			c1.2-0.4,1.1-1.7,0.8-2.5c-0.3-0.7-0.9-1.7-2.1-1.2l-1.6,0.6L115.4,7.3z">
   </path>
   <polyline class="st2" points="121.2,2.2 119.2,2.7 119.4,3.5 121.3,3 121.4,3.7 119.6,4.2 119.8,5.2 121.9,4.6 122.1,5.3 119.2,6 
			118.2,2.2 121.1,1.5 		">
   </polyline>
   <polyline class="st2" points="124.5,1 125.4,0.8 124.6,4.9 123.8,5.1 121.9,1.3 122.8,1.2 124.1,4.1 124.1,4.1 		">
   </polyline>
   <polyline class="st2" points="129.1,1.4 127,1.5 127,2.3 129,2.2 129,2.9 127.1,3 127.1,4 129.3,3.9 129.3,4.6 126.3,4.7 
			126.2,0.8 129.1,0.7 		">
   </polyline>
   <polyline class="st2" points="130.8,4 132.8,4.1 132.7,4.8 130,4.6 130.2,0.7 131,0.7 		">
   </polyline>
   <path class="st2" d="M134.2,3c0.2-1.1,0.8-1.3,1.3-1.2c0.4,0.1,1,0.4,0.9,1.5c-0.2,1.1-0.8,1.3-1.3,1.2C134.6,4.4,134,4.1,134.2,3
			 M133.4,2.8c-0.3,1.8,1,2.3,1.6,2.3c0.5,0.1,1.9,0.1,2.2-1.8c0.3-1.8-1-2.3-1.6-2.3C135.1,1,133.7,1,133.4,2.8">
   </path>
   <path class="st2" d="M138.8,3.7l0.3-1.1l0.6,0.2c0.5,0.1,0.7,0.3,0.6,0.7c0,0.2-0.2,0.6-0.8,0.4 M138.6,4.4l0.9,0.2
			c1,0.3,1.5-0.5,1.5-0.9c0.2-0.8-0.1-1.3-0.9-1.5l-1.7-0.5l-1,3.8l0.8,0.2L138.6,4.4z">
   </path>
   <polyline class="st2" points="144.5,7.9 143.8,7.6 145,4.5 145,4.5 143.1,7.3 142.3,7 142.9,3.7 142.9,3.7 141.7,6.7 140.9,6.5 
			142.4,2.8 143.5,3.2 143,6.4 143,6.4 144.8,3.7 145.9,4.2 		">
   </polyline>
   <polyline class="st2" points="149.3,6.7 147.4,5.7 147,6.4 148.7,7.3 148.4,8 146.7,7.1 146.2,8 148.2,9 147.9,9.6 145.2,8.2 
			147,4.7 149.6,6.1 		">
   </polyline>
   <polyline class="st2" points="152.6,8 153.3,8.4 151.1,11.7 150.4,11.2 150.6,8 150.6,8 149,10.3 148.4,9.9 150.6,6.6 151.3,7.1 
			151.1,10.3 151.1,10.3 		">
   </polyline>
   <polyline class="st2" points="153,13.2 152.4,12.7 154.4,10.2 153.5,9.5 153.9,8.9 156.4,11 156,11.5 155.1,10.7 		">
   </polyline>
   <polyline class="st2" points="155.9,16 155.4,15.4 158.3,12.7 160.2,14.8 159.7,15.2 158.3,13.8 157.7,14.4 158.8,15.7 
			158.3,16.1 157.1,14.9 		">
   </polyline>
   <path class="st2" d="M160.7,19.6c-0.8,0.6-1.6,0.4-2.2-0.4c-0.2-0.3-0.5-0.8-0.4-1.3c0.1-0.3,0.3-0.6,0.6-0.8l2.1-1.6l0.5,0.7
			l-2,1.6c-0.4,0.3-0.4,0.7-0.2,1c0.3,0.5,0.7,0.5,1.1,0.2l2.1-1.6l0.5,0.7">
   </path>
   <polyline class="st2" points="164.7,21.1 165.1,21.7 161.7,23.8 161.3,23.1 162.8,20.2 162.8,20.2 160.4,21.7 160,21 163.4,19 
			163.8,19.7 162.3,22.5 162.3,22.5 		">
   </polyline>
   <path class="st2" d="M165.4,23.9l0.3,0.7c0.1,0.3,0.3,0.9-0.8,1.4c-0.6,0.3-1.3,0.4-1.6-0.3l-0.3-0.7 M162.1,24.5l0.7,1.5
			c0.6,1.2,1.8,1,2.6,0.6c0.7-0.3,1.6-1,1-2.2l-0.7-1.6L162.1,24.5z">
   </path>
   <path class="st3" d="M43,85.6c23.5,0,42.6-19.1,42.6-42.6C85.6,19.5,66.5,0.4,43,0.4C19.5,0.4,0.4,19.5,0.4,43
			C0.4,66.5,19.5,85.6,43,85.6z">
   </path>
   <path class="st2" d="M4.6,40.9l0.1-1c0-0.3,0.2-0.6,0.5-0.6c0.4,0,0.6,0.3,0.5,0.7l-0.1,1 M6.3,41.8l0.1-1.7
			c0.1-0.8-0.1-1-0.3-1.3c-0.2-0.2-0.5-0.4-0.8-0.4c-0.4,0-0.8,0.1-1,0.5c-0.1-0.2-0.2-0.5-0.8-0.5c-0.4,0-1,0.2-1.1,1.1l-0.1,1.9
			L6.3,41.8z M3.1,40.8l0.1-0.9c0-0.4,0.1-0.6,0.5-0.6c0.3,0,0.4,0.3,0.4,0.6l-0.1,1L3.1,40.8z">
   </path>
   <path class="st2" d="M6.7,37.3l-0.2,0.9l-3.6-2.1l0.2-0.9l4.1-0.7l-0.2,0.9l-0.8,0.1L6,36.9 M5.3,36.6l0.2-1l-1.6,0.2l0,0
			L5.3,36.6z">
   </path>
   <polyline class="st2" points="4.3,30.6 4.5,29.8 8.3,31 8,31.7 4.9,32.5 4.9,32.5 7.6,33.3 7.3,34 3.6,32.9 3.8,32.1 6.9,31.4 
			6.9,31.4 		">
   </polyline>
   <path class="st2" d="M8.2,28.2L8.7,28c0,0.2,0,0.3-0.1,0.5c-0.2,0.4-0.7,0.9-1.7,0.4c-1-0.4-1-1.1-0.9-1.5
			c0.2-0.4,0.7-0.9,1.7-0.4c0.3,0.1,0.6,0.3,0.7,0.5L8,27.6 M9.8,26.8l-0.5,0.2c-0.2-0.3-0.5-0.7-1.1-0.9c-1.7-0.7-2.5,0.5-2.7,0.9
			c-0.2,0.5-0.5,1.8,1.2,2.6c1.7,0.7,2.5-0.5,2.7-0.9c0.1-0.2,0.2-0.6,0.2-1l0.6-0.3L9.8,26.8z">
   </path>
   <path class="st2" d="M10.6,22.9c0.9,0.5,1,1.3,0.5,2.1c-0.2,0.3-0.5,0.7-1,0.9c-0.3,0.1-0.6,0-1-0.2l-2.3-1.3l0.4-0.7l2.2,1.3
			c0.5,0.3,0.8,0.1,1-0.2c0.3-0.5,0.2-0.8-0.3-1.1l-2.3-1.3l0.4-0.7">
   </path>
   <polyline class="st2" points="11.2,18.6 10,20.4 10.7,20.8 11.8,19.3 12.4,19.7 11.3,21.2 12.1,21.8 13.4,20 13.9,20.4 12.2,22.9 
			9,20.6 10.7,18.2 		">
   </polyline>
   <path class="st2" d="M14.2,15.5L14.2,15.5l1.5,0.7L15,17 M15.3,17.6l1-1.1l0.8,0.4l0.6-0.6l-3.8-1.7l-0.7,0.7l1.9,3.7l0.6-0.6
			L15.3,17.6z">
   </path>
   <polyline class="st2" points="18.8,15.4 18.1,15.9 15.5,12.9 17.7,11.1 18.1,11.6 16.6,12.9 17.2,13.6 18.5,12.5 19,13 17.7,14.1 
					">
   </polyline>
   <path class="st2" d="M20.1,11.5l-0.6-0.9l0.8-0.6c0.4-0.3,0.6-0.1,0.8,0.1c0.2,0.3,0.1,0.6-0.2,0.8 M20.7,13.7l0.7-0.5L20.5,12
			l0.7-0.5c0.5-0.4,0.6-0.2,1,0.2c0.2,0.3,0.4,0.5,0.5,0.6l0.7-0.5l-0.1-0.1c-0.2,0-0.3-0.1-0.6-0.5c-0.4-0.6-0.6-0.6-1-0.5
			c0.2-0.3,0.2-0.8,0-1.1c-0.2-0.3-0.8-0.8-1.7-0.2l-1.6,1.1L20.7,13.7z">
   </path>
   <polyline class="st2" points="24.6,11.1 23.9,11.5 21.9,8.2 22.6,7.7 		">
   </polyline>
   <path class="st2" d="M26.4,7.2C26.2,7,25.9,6.7,25.3,7c-0.4,0.2-0.8,0.7-0.3,1.7c0.3,0.6,0.9,1.1,1.5,0.8c0.4-0.2,0.6-0.6,0.5-1.1
			L27.7,8c0.2,0.8,0,1.6-0.9,2.1c-0.9,0.5-1.9,0.2-2.5-1.1c-0.6-1.2-0.2-2.2,0.7-2.7c1.1-0.5,1.8,0,2.1,0.5">
   </path>
   <path class="st2" d="M29.3,5.6L29.3,5.6l1,1.3l-0.9,0.3 M29.4,7.9l1.4-0.5l0.5,0.7l0.8-0.3l-2.7-3.2l-0.9,0.3l0,4.2l0.8-0.3
			L29.4,7.9z">
   </path>
   <polyline class="st2" points="33.4,7.5 32.6,7.7 31.5,3.9 32.3,3.7 		">
   </polyline>
   <polyline class="st2" points="35.7,2.9 36.5,2.7 37.3,6.6 36.4,6.8 34.3,4.3 34.3,4.3 34.9,7.1 34.1,7.2 33.3,3.4 34.2,3.2 
			36.2,5.6 36.3,5.6 		">
   </polyline>
   <polyline class="st2" points="40.5,3 38.4,3.2 38.5,4 40.4,3.8 40.5,4.5 38.6,4.7 38.7,5.7 40.9,5.5 40.9,6.2 37.9,6.5 37.5,2.6 
			40.4,2.3 		">
   </polyline>
   <path class="st2" d="M44.1,2.9l0.8,0c0.4,0,0.9,0.1,0.9,1.3c0,0.6-0.3,1.3-1,1.3l-0.8,0 M43.1,6.1l1.7,0.1c1.3,0.1,1.7-1.2,1.7-2
			c0-0.7-0.2-1.9-1.5-1.9l-1.7-0.1L43.1,6.1z">
   </path>
   <polyline class="st2" points="50.4,3.6 48.3,3.3 48.2,4.1 50.1,4.3 50,5 48.1,4.8 47.9,5.8 50.1,6.1 50,6.8 47,6.4 47.6,2.4 
			50.5,2.9 		">
   </polyline>
   <path class="st2" d="M53.8,4.3l0.8,0.2c0.3,0.1,0.8,0.3,0.5,1.5c-0.2,0.6-0.6,1.2-1.2,1l-0.8-0.2 M52.1,7.2l1.6,0.5
			C55,8.1,55.7,7,55.9,6.2c0.2-0.7,0.3-1.9-1-2.3l-1.7-0.5L52.1,7.2z">
   </path>
   <polyline class="st2" points="59.8,6.5 57.9,5.7 57.6,6.5 59.4,7.2 59.1,7.9 57.3,7.1 56.9,8.1 58.9,8.9 58.7,9.6 55.9,8.4 
			57.4,4.8 60.1,5.9 		">
   </polyline>
   <polyline class="st2" points="63.1,7.5 63.9,7.9 60.9,10.7 60.2,10.3 60.9,6.2 61.6,6.7 61,9.7 61,9.7 		">
   </polyline>
   <polyline class="st2" points="66.7,10.6 65,9.4 64.5,10.1 66.1,11.1 65.7,11.7 64.1,10.7 63.5,11.5 65.3,12.7 65,13.3 62.5,11.6 
			64.7,8.4 67.1,10 		">
   </polyline>
   <polyline class="st2" points="66.6,13.7 68.1,14.9 67.6,15.5 65.5,13.7 68,10.7 68.6,11.2 		">
   </polyline>
   <path class="st2" d="M69.9,14.9c0.8-0.8,1.4-0.5,1.7-0.2c0.3,0.3,0.6,1-0.2,1.7c-0.8,0.8-1.4,0.5-1.7,0.2
			C69.4,16.3,69.1,15.7,69.9,14.9 M69.3,14.3c-1.3,1.3-0.5,2.4-0.1,2.8c0.4,0.4,1.5,1.2,2.8-0.1c1.3-1.3,0.5-2.4,0.1-2.8
			C71.8,13.9,70.7,13,69.3,14.3">
   </path>
   <path class="st2" d="M73.2,18.3l0.9-0.7l0.4,0.5c0.3,0.4,0.3,0.7,0,0.9c-0.1,0.1-0.5,0.4-0.9-0.1 M72.7,18.7l0.6,0.7
			c0.7,0.8,1.5,0.4,1.8,0.2c0.6-0.5,0.7-1.1,0.2-1.7l-1.1-1.4L71,18.9l0.5,0.6L72.7,18.7z">
   </path>
   <path class="st2" d="M75.5,21.4l1-0.6l0.4,0.6c0.3,0.4,0.3,0.7-0.1,0.9c-0.1,0.1-0.5,0.3-0.9-0.2 M74.9,21.8l0.5,0.8
			c0.6,0.9,1.4,0.6,1.7,0.4c0.6-0.4,0.8-1.1,0.4-1.7l-1-1.5l-3.3,2.1l0.4,0.7L74.9,21.8z">
   </path>
   <polyline class="st2" points="79.5,26.1 78.5,24.2 77.8,24.6 78.7,26.3 78,26.6 77.2,24.9 76.2,25.4 77.2,27.3 76.6,27.6 75.3,25 
			78.8,23.2 80.1,25.7 		">
   </polyline>
   <polyline class="st2" points="78.3,31.8 78,31.1 81.1,29.9 81.1,29.9 77.7,30.4 77.4,29.6 80.3,27.8 80.3,27.8 77.2,28.9 
			76.9,28.2 80.6,26.8 81,27.9 78.4,29.7 78.4,29.7 81.5,29.3 82,30.4 		">
   </polyline>
   <polyline class="st2" points="82.3,34.5 81.8,32.4 81,32.6 81.5,34.5 80.8,34.7 80.3,32.8 79.3,33.1 79.9,35.2 79.2,35.4 
			78.4,32.5 82.3,31.5 83,34.3 		">
   </polyline>
   <polyline class="st2" points="83.6,37.7 83.7,38.5 79.8,39.1 79.6,38.2 82.2,36.2 82.2,36.2 79.4,36.6 79.3,35.9 83.2,35.3 
			83.3,36.2 80.8,38.1 80.8,38.1 		">
   </polyline>
   <polyline class="st2" points="79.9,41.4 79.9,40.6 83.1,40.4 83,39.3 83.7,39.2 83.9,42.4 83.2,42.5 83.2,41.3 		">
   </polyline>
   <path class="st0" d="M43,78c19.3,0,35-15.7,35-35S62.3,8,43,8C23.7,8,8,23.7,8,43S23.7,78,43,78z">
   </path>
   <path class="st1" d="M57.7,27.2c0.3,0.3,0,0.7,0.7,0.7c0,3.3,3,5.2,5.2,7.1c0.4,0.4,0.7,1.9,1.1,1.9c1.9,0,4.1-0.7,5.6-1.9
			c0.7,3-1.5,5.2-3,7.8c-1.1,2.2-4.1,3.3-5.9,5.2c-0.7,0.7-1.5,1.9-1.5,2.6c0.4,3,1.5,5.9,0.7,8.9c-0.7,1.5-3.3,1.9-4.8,3.3
			c-0.4,1.1,1.1,2.6,0.4,3.7C55.5,67,54,67.3,54,68.1c-0.7,3-3.3,4.8-5.2,6.3c-1.9,1.5-4.1,0-6.3,1.1c-0.4,0-0.4-0.7-1.1-0.7
			c0-0.7,0.4-1.5,0-1.9c-1.1-3.3-1.9-6.7-3.3-10.4c0-0.7-0.7-1.5-0.7-2.2c-0.4-1.9,0-3.7,1.5-5.2c0.4-1.1-0.4-2.6-0.4-3.7
			c-0.4-0.7-1.5-1.5-1.5-2.2c0.4-0.7-0.4-1.1,0-1.5c-2.6-1.1-1.5-4.1-0.7-5.9c0-0.4-0.7-0.7-1.1-1.1c-0.7,0.7-1.5,0.4-2.2,0.4
			c0-1.1-1.1-1.9-1.9-2.2c-1.1,0-2.6,0.7-3.7,1.1c-1.9,0-3.3,0-5.2-0.4c-1.5,0-3-1.9-4.1-3c-1.1-1.5-1.5-3-2.2-4.5
			c-1.1-1.5,0-3,1.1-4.5c0.7-1.5,0-3.3,0.7-4.5c1.1-1.5,1.9-3.3,3.7-4.1c1.1-0.4,3-0.4,3-1.5c0.4-1.9,2.6-3.3,3.7-3.3
			c3.7-0.4,8.6-1.1,11.9,0.4c-0.7,1.1-1.1,3,0.4,3.3c1.5,0.4,1.9,1.1,3,1.9h1.1c0,0.4,0,0.7,0.4,0.7c1.5,0,0-1.9,1.1-2.2
			c2.6-0.4,5.2,3.3,7.4,1.1c0.4,0.4,0.7,0.4,1.1,0.4C55.5,22.4,55.8,25.3,57.7,27.2">
   </path>
   <path class="st1" d="M67,65.1c-0.5,1.1-0.4,2.2-1.5,2.6l0.4,0.4l-0.4,0.4l-0.4-0.4c-0.4,0-0.4,0.4-0.4,0.7h-1.1
			c-0.4-1.5-1.5-2.6-0.7-4.1c1.1-1.1,0.7-2.6,1.1-3.7c0.7-1.9,3.7-1.9,4.5-4.5c1.1,0.7,0.7,2.2,0.7,3.3c-0.4,0-0.7,0-0.7,0.4
			C68.8,62.1,67.7,63.6,67,65.1">
   </path>
   <path class="st2" d="M11.6,63.3L11.6,63.3l-1,1.2l-0.5-0.8 M9.5,63.9l0.7,1.1l-0.5,0.6l0.5,0.7l2.4-3.1l-0.5-0.7l-3.8,0.9l0.4,0.7
			L9.5,63.9z">
   </path>
   <polyline class="st2" points="11.1,67.5 10.6,66.9 13.5,64.6 15.2,66.6 14.6,67.1 13.5,65.6 12.8,66.1 13.8,67.4 13.3,67.8 
			12.3,66.5 		">
   </polyline>
   <path class="st2" d="M14.8,68.6l0.7-0.7l0.7,0.7c0.3,0.3,0.2,0.6,0,0.7c-0.3,0.3-0.5,0.2-0.8-0.1 M12.7,69.5l0.5,0.6l1-1l0.5,0.6
			c0.4,0.4,0.3,0.6-0.1,0.9c-0.3,0.3-0.4,0.4-0.5,0.6l0.6,0.6l0.1-0.1c-0.1-0.2,0-0.3,0.4-0.6c0.5-0.5,0.5-0.7,0.4-1
			c0.3,0.2,0.7,0.1,1-0.2c0.2-0.2,0.6-0.8,0-1.6L15.4,67L12.7,69.5z">
   </path>
   <polyline class="st2" points="16,72.7 15.4,72.2 17.9,69.5 18.5,70 		">
   </polyline>
   <path class="st2" d="M20,72.9c0.1-0.2,0.3-0.6-0.2-1c-0.3-0.2-0.9-0.4-1.5,0.4c-0.4,0.5-0.6,1.1-0.1,1.6c0.3,0.3,0.7,0.3,1.1,0
			l0.6,0.5c-0.6,0.5-1.4,0.6-2.1,0.1c-0.8-0.6-0.9-1.6-0.1-2.6c0.8-1,1.8-1.1,2.5-0.5c0.9,0.7,0.7,1.6,0.4,2">
   </path>
   <path class="st2" d="M22.5,74.2L22.5,74.2l-0.4,1.5l-0.8-0.5 M20.8,75.6l1.1,0.7l-0.2,0.8l0.7,0.5l0.9-3.8l-0.7-0.5l-3.1,2.4
			l0.7,0.4L20.8,75.6z">
   </path>
   <polyline class="st2" points="26.8,75.7 27.4,76 25.7,79.3 25,78.9 24.9,75.9 24.9,75.9 23.7,78.2 23,77.9 24.7,74.6 25.5,75 
			25.6,77.9 25.6,78 		">
   </polyline>
   <path class="st2" d="M29.7,77.7l0.7,0.3c0.3,0.1,0.8,0.4,0.4,1.4c-0.2,0.6-0.6,1.1-1.2,0.9l-0.7-0.3 M28,80.3l1.5,0.5
			c1.1,0.4,1.8-0.6,2.1-1.3c0.2-0.7,0.4-1.7-0.8-2.2l-1.5-0.6L28,80.3z">
   </path>
   <polyline class="st2" points="35.1,79.3 33.2,78.8 33,79.6 34.8,80 34.6,80.7 32.9,80.2 32.6,81.1 34.6,81.6 34.4,82.3 31.7,81.6 
			32.6,78 35.3,78.7 		">
   </polyline>
   <polyline class="st2" points="38,79.1 38.8,79.3 36.9,82.7 36.2,82.6 35.6,78.7 36.4,78.9 36.7,81.8 36.7,81.8 		">
   </polyline>
   <polyline class="st2" points="41.8,80.1 39.9,80 39.8,80.8 41.6,80.9 41.5,81.6 39.7,81.4 39.7,82.4 41.7,82.5 41.7,83.2 38.9,83 
			39.1,79.3 41.9,79.5 		">
   </polyline>
   <polyline class="st2" points="43.3,82.5 45.1,82.5 45.1,83.2 42.5,83.2 42.4,79.5 43.2,79.5 		">
   </polyline>
   <path class="st2" d="M46.3,81.2c-0.1-1,0.4-1.3,0.9-1.4c0.4,0,1,0.2,1.1,1.2c0.1,1-0.4,1.3-0.9,1.4C47,82.4,46.4,82.3,46.3,81.2
			 M45.5,81.3c0.2,1.7,1.5,1.8,2,1.7c0.5-0.1,1.7-0.4,1.6-2.1c-0.2-1.7-1.5-1.8-2-1.7C46.6,79.2,45.3,79.6,45.5,81.3">
   </path>
   <path class="st2" d="M50.4,80.5l-0.2-1.1l0.6-0.1c0.5-0.1,0.7,0,0.8,0.4c0,0.2,0.1,0.6-0.4,0.7 M50.5,81.2l0.9-0.2
			c1-0.2,1-1.1,0.9-1.4c-0.1-0.7-0.7-1.1-1.4-0.9L49.3,79l0.7,3.6l0.8-0.2L50.5,81.2z">
   </path>
   <polyline class="st2" points="57,80.8 56.3,81 55.4,78.1 55.4,78.1 55.7,81.2 55,81.4 53.4,78.7 53.4,78.7 54.3,81.6 53.6,81.9 
			52.5,78.3 53.6,78 55.1,80.6 55.1,80.6 54.9,77.6 55.9,77.3 		">
   </polyline>
   <polyline class="st2" points="59.2,76.5 57.4,77.3 57.8,78 59.4,77.3 59.7,77.9 58,78.6 58.4,79.5 60.3,78.7 60.5,79.3 58,80.4 
			56.5,77 59,75.9 		">
   </polyline>
   <polyline class="st2" points="61.5,74.6 62.1,74.3 63.9,77.5 63.2,77.9 60.6,76.3 60.6,76.3 61.9,78.6 61.3,78.9 59.5,75.7 
			60.2,75.3 62.7,76.9 62.7,76.9 		">
   </polyline>
   <polyline class="st2" points="66,76.1 65.4,76.5 63.7,74 62.8,74.6 62.4,74.1 64.9,72.4 65.2,73 64.3,73.6 		">
   </polyline>
   <path class="st2" d="M68.2,72.4l0.7-0.6c0.2-0.2,0.5-0.3,0.7,0c0.2,0.3,0.2,0.5-0.1,0.8l-0.7,0.6 M68.7,74.2l1.2-1
			c0.6-0.5,0.6-0.7,0.7-1c0-0.3-0.1-0.6-0.3-0.8c-0.2-0.3-0.6-0.5-1-0.3c0.1-0.2,0.2-0.5-0.2-0.9c-0.3-0.3-0.8-0.6-1.5,0l-1.4,1.2
			L68.7,74.2z M67.2,71.4l0.7-0.6c0.3-0.2,0.5-0.3,0.7-0.1c0.2,0.2,0.1,0.5-0.1,0.7L67.8,72L67.2,71.4z">
   </path>
   <path class="st2" d="M70.5,68.5L70.5,68.5l1.4,0.7l-0.6,0.7 M71.6,70.4l0.9-1l0.7,0.4l0.6-0.6l-3.6-1.6l-0.6,0.6l1.8,3.5l0.6-0.6
			L71.6,70.4z">
   </path>
   <polyline class="st2" points="72.8,64.6 73.2,64 76.1,66.3 75.7,66.9 72.6,66.4 72.6,66.5 74.7,68.1 74.3,68.6 71.4,66.4 
			71.9,65.7 74.8,66.2 74.8,66.1 		">
   </polyline>
   <polyline class="st2" points="77.1,64.8 76.7,65.4 73.6,63.4 74,62.8 75.3,63.6 74.7,61.6 75.3,60.8 75.8,62.8 78.5,62.6 
			77.9,63.5 75.9,63.6 76.1,64.1 		">
   </polyline>
   <path class="st2" d="M175.6,36.3h1l2.5,6.5h-1l-0.7-2h-2.8l-0.7,2H173 M174.9,40.1h2.2l-1.1-3h0L174.9,40.1z">
   </path>
   <polyline class="st2" points="179.7,36.3 184,36.3 184,37 180.6,37 180.6,39.1 183.6,39.1 183.6,39.8 180.6,39.8 180.6,42.8 
			179.7,42.8 		">
   </polyline>
   <path class="st2" d="M184.9,36.3h3.1c1.2,0,2,0.7,2,1.7c0,0.8-0.3,1.4-1.1,1.6v0c0.8,0.1,0.9,0.7,1,1.3c0.1,0.6,0,1.3,0.4,1.8h-1
			c-0.2-0.3-0.1-1-0.2-1.6c-0.1-0.6-0.2-1.2-1.1-1.2h-2.1v2.8h-0.9 M187.6,39.3c0.8,0,1.5-0.2,1.5-1.2c0-0.6-0.3-1.1-1.2-1.1h-2.2
			v2.3H187.6z">
   </path>
   <rect x="191.2" y="36.3" class="st2" width="0.9" height="6.5">
   </rect>
   <path class="st2" d="M198.1,38.3c-0.2-0.9-0.9-1.4-1.8-1.4c-1.5,0-2.2,1.3-2.2,2.6c0,1.5,0.7,2.7,2.2,2.7c1.1,0,1.8-0.8,1.9-1.9
			h0.9c-0.2,1.6-1.2,2.6-2.8,2.6c-2,0-3-1.5-3-3.4c0-1.9,1.1-3.4,3.1-3.4c1.4,0,2.5,0.7,2.7,2.1">
   </path>
   <path class="st2" d="M201.9,36.3h1l2.5,6.5h-1l-0.7-2H201l-0.7,2h-0.9 M201.2,40.1h2.2l-1.1-3h0L201.2,40.1z">
   </path>
   <polyline class="st2" points="206,36.3 206.9,36.3 210.4,41.6 210.4,41.6 210.4,36.3 211.2,36.3 211.2,42.8 210.3,42.8 
			206.9,37.6 206.8,37.6 206.8,42.8 206,42.8 		">
   </polyline>
   <path class="st2" d="M215.1,36.3h2.2c2,0,3.1,1,3.1,3.1c0,2.2-1,3.4-3.1,3.4h-2.2 M216,42.1h1.4c0.6,0,2.2-0.2,2.2-2.6
			c0-1.5-0.6-2.5-2.2-2.5H216V42.1z">
   </path>
   <polyline class="st2" points="221.6,36.3 226.1,36.3 226.1,37 222.4,37 222.4,39.1 225.8,39.1 225.8,39.8 222.4,39.8 222.4,42.1 
			226.1,42.1 226.1,42.8 221.6,42.8 		">
   </polyline>
   <polyline class="st2" points="229.7,42.8 228.7,42.8 226.4,36.3 227.4,36.3 229.2,41.9 229.2,41.9 231.1,36.3 232,36.3 		">
   </polyline>
   <polyline class="st2" points="232.7,36.3 237.2,36.3 237.2,37 233.6,37 233.6,39.1 237,39.1 237,39.8 233.6,39.8 233.6,42.1 
			237.2,42.1 237.2,42.8 232.7,42.8 		">
   </polyline>
   <polyline class="st2" points="238.3,36.3 239.1,36.3 239.1,42.1 242.6,42.1 242.6,42.8 238.3,42.8 		">
   </polyline>
   <path class="st2" d="M246.1,36.2c2.1,0,3.1,1.6,3.1,3.4c0,1.8-1,3.4-3.1,3.4c-2.1,0-3.1-1.6-3.1-3.4C243,37.8,244,36.2,246.1,36.2
			 M246.1,42.2c1.6,0,2.3-1.4,2.3-2.7c0-1.3-0.7-2.7-2.3-2.7c-1.6,0-2.3,1.4-2.3,2.7C243.8,40.9,244.5,42.2,246.1,42.2z">
   </path>
   <path class="st2" d="M250.3,36.3h2.9c1.3,0,2,0.7,2,1.9c0,1.2-0.7,1.9-2,1.9h-2v2.7h-0.9 M251.1,39.4h1.7c1,0,1.4-0.4,1.4-1.2
			c0-0.8-0.4-1.2-1.4-1.2h-1.7V39.4z">
   </path>
   <polyline class="st2" points="256.2,36.3 257.4,36.3 259.4,41.8 261.5,36.3 262.7,36.3 262.7,42.8 261.9,42.8 261.9,37.4 
			261.8,37.4 259.8,42.8 259.1,42.8 257,37.4 257,37.4 257,42.8 256.2,42.8 		">
   </polyline>
   <polyline class="st2" points="264.1,36.3 268.6,36.3 268.6,37 265,37 265,39.1 268.4,39.1 268.4,39.8 265,39.8 265,42.1 
			268.6,42.1 268.6,42.8 264.1,42.8 		">
   </polyline>
   <polyline class="st2" points="269.7,36.3 270.6,36.3 274,41.6 274.1,41.6 274.1,36.3 274.9,36.3 274.9,42.8 273.9,42.8 
			270.5,37.6 270.5,37.6 270.5,42.8 269.7,42.8 		">
   </polyline>
   <polyline class="st2" points="277.8,37 275.6,37 275.6,36.3 280.8,36.3 280.8,37 278.6,37 278.6,42.8 277.8,42.8 		">
   </polyline>
   <path class="st2" d="M283.4,36.2h2.4c0.6,0,1.3,0,1.7,0.2c0.4,0.3,0.8,0.7,0.8,1.4c0,0.7-0.4,1.2-1,1.5v0c0.8,0.2,1.2,0.8,1.2,1.6
			c0,1-0.7,1.9-2,1.9h-3.1 M284.2,39h1.7c1,0,1.4-0.4,1.4-1c0-0.9-0.6-1-1.4-1h-1.7V39z M284.2,42h2.2c0.7,0,1.2-0.5,1.2-1.2
			c0-0.8-0.7-1.1-1.4-1.1h-2V42z">
   </path>
   <path class="st2" d="M291.4,36.2h1l2.5,6.5h-1l-0.7-2h-2.8l-0.7,2h-0.9 M290.7,40.1h2.2l-1.1-3h0L290.7,40.1z">
   </path>
   <polyline class="st2" points="295.5,36.2 296.4,36.2 299.9,41.5 299.9,41.5 299.9,36.2 300.7,36.2 300.7,42.7 299.7,42.7 
			296.3,37.5 296.3,37.5 296.3,42.7 295.5,42.7 		">
   </polyline>
   <polyline class="st2" points="302.1,36.2 303,36.2 303,39.5 306.3,36.2 307.4,36.2 304.6,38.9 307.5,42.7 306.4,42.7 304.1,39.5 
			303,40.5 303,42.7 302.1,42.7 		">
   </polyline>
   <path class="st2" d="M314.5,41.9c-0.5,0.7-1.3,1-2.1,1c-1.9,0-3.1-1.6-3.1-3.3c0-1.9,1-3.5,3.1-3.5c1.4,0,2.6,0.6,2.8,2.2h-0.9
			c-0.2-1-1-1.4-1.9-1.4c-1.6,0-2.2,1.4-2.2,2.8c0,1.4,0.8,2.6,2.2,2.6c1.3,0,2.1-0.9,2.1-2.1h-2.1v-0.7h2.9v3.4h-0.5">
   </path>
   <path class="st2" d="M316.5,36.2h3.1c1.2,0,2,0.7,2,1.7c0,0.8-0.3,1.4-1.1,1.6v0c0.8,0.1,0.9,0.7,1,1.3c0.1,0.6,0,1.3,0.4,1.8h-1
			c-0.2-0.3-0.1-1-0.2-1.6c-0.1-0.6-0.2-1.2-1.1-1.2h-2.1v2.8h-0.9 M319.2,39.2c0.8,0,1.5-0.2,1.5-1.2c0-0.6-0.3-1.1-1.2-1.1h-2.1
			v2.3H319.2z">
   </path>
   <path class="st2" d="M325.5,36.1c2.1,0,3.1,1.6,3.1,3.4c0,1.8-1,3.4-3.1,3.4c-2.1,0-3.1-1.6-3.1-3.4
			C322.4,37.7,323.5,36.1,325.5,36.1 M325.5,42.2c1.6,0,2.3-1.4,2.3-2.7c0-1.3-0.7-2.7-2.3-2.7c-1.6,0-2.3,1.4-2.3,2.7
			C323.3,40.8,323.9,42.2,325.5,42.2z">
   </path>
   <path class="st2" d="M334.9,40.4c0,1.6-0.9,2.5-2.6,2.5c-1.7,0-2.7-0.8-2.7-2.5v-4.2h0.9v4.2c0,1.1,0.7,1.8,1.8,1.8
			c1.1,0,1.7-0.6,1.7-1.8v-4.2h0.9">
   </path>
   <path class="st2" d="M336.3,36.2h2.9c1.3,0,2,0.7,2,1.9c0,1.2-0.7,1.9-2,1.9h-2v2.7h-0.9 M337.2,39.4h1.7c1,0,1.4-0.4,1.4-1.2
			c0-0.8-0.4-1.2-1.4-1.2h-1.7V39.4z">
   </path>
  </g>
 </g>
</svg>