<?xml version="1.0" encoding="UTF-8" standalone="no"?>
<!-- Created with Inkscape (http://www.inkscape.org/) -->

<svg
   width="316"
   height="316"
   viewBox="0 0 420 420"
   id="svg2472"
   sodipodi:version="0.32"
   inkscape:version="1.4.2 (f4327f4, 2025-05-13)"
   version="1.0"
   sodipodi:docname="Seal_of_ASEAN.svg"
   inkscape:output_extension="org.inkscape.output.svg.inkscape"
   xmlns:inkscape="http://www.inkscape.org/namespaces/inkscape"
   xmlns:sodipodi="http://sodipodi.sourceforge.net/DTD/sodipodi-0.dtd"
   xmlns="http://www.w3.org/2000/svg"
   xmlns:svg="http://www.w3.org/2000/svg"
   xmlns:rdf="http://www.w3.org/1999/02/22-rdf-syntax-ns#"
   xmlns:cc="http://creativecommons.org/ns#"
   xmlns:dc="http://purl.org/dc/elements/1.1/">
  <defs
     id="defs2474">
    <inkscape:perspective
       sodipodi:type="inkscape:persp3d"
       inkscape:vp_x="0 : 526.18109 : 1"
       inkscape:vp_y="0 : 1000 : 0"
       inkscape:vp_z="744.09448 : 526.18109 : 1"
       inkscape:persp3d-origin="372.04724 : 350.78739 : 1"
       id="perspective2480" />
    <inkscape:perspective
       id="perspective2509"
       inkscape:persp3d-origin="372.04724 : 350.78739 : 1"
       inkscape:vp_z="744.09448 : 526.18109 : 1"
       inkscape:vp_y="0 : 1000 : 0"
       inkscape:vp_x="0 : 526.18109 : 1"
       sodipodi:type="inkscape:persp3d" />
    <inkscape:perspective
       id="perspective2578"
       inkscape:persp3d-origin="372.04724 : 350.78739 : 1"
       inkscape:vp_z="744.09448 : 526.18109 : 1"
       inkscape:vp_y="0 : 1000 : 0"
       inkscape:vp_x="0 : 526.18109 : 1"
       sodipodi:type="inkscape:persp3d" />
  </defs>
  <sodipodi:namedview
     id="base"
     pagecolor="#ffffff"
     bordercolor="#666666"
     borderopacity="1.0"
     gridtolerance="10000"
     guidetolerance="10"
     objecttolerance="10"
     inkscape:pageopacity="0.0"
     inkscape:pageshadow="2"
     inkscape:zoom="1.7249545"
     inkscape:cx="177.39599"
     inkscape:cy="130.43823"
     inkscape:document-units="px"
     inkscape:current-layer="layer1"
     showgrid="false"
     inkscape:window-width="1280"
     inkscape:window-height="713"
     inkscape:window-x="0"
     inkscape:window-y="0"
     inkscape:showpageshadow="0"
     inkscape:pagecheckerboard="0"
     inkscape:deskcolor="#d1d1d1"
     inkscape:window-maximized="0" />
  <metadata
     id="metadata2477">
    <rdf:RDF>
      <cc:Work
         rdf:about="">
        <dc:format>image/svg+xml</dc:format>
        <dc:type
           rdf:resource="http://purl.org/dc/dcmitype/StillImage" />
      </cc:Work>
    </rdf:RDF>
  </metadata>
  <g
     inkscape:label="Layer 1"
     inkscape:groupmode="layer"
     id="layer1">
    <circle
       transform="matrix(1.200414,0,0,1.2002923,-300.34332,-130.40746)"
       sodipodi:ry="170.07861"
       sodipodi:rx="170.07861"
       sodipodi:cy="283.46387"
       sodipodi:cx="425.19678"
       style="fill:#0032a0;fill-opacity:1"
       id="circle6"
       r="170.07861"
       cy="283.46387"
       cx="425.19678" />
    <path
       sodipodi:type="inkscape:offset"
       inkscape:radius="0"
       inkscape:original="M 425.1875 120.46875 C 335.21568 120.46875 262.21875 193.49693 262.21875 283.46875 C 262.21875 373.44057 335.21568 446.46875 425.1875 446.46875 C 515.15932 446.46875 588.1875 373.44057 588.1875 283.46875 C 588.1875 193.49693 515.15932 120.46875 425.1875 120.46875 z "
       style="fill:#ffffff"
       id="path2537"
       d="M 425.1875,120.46875 C 335.21568,120.46875 262.21875,193.49693 262.21875,283.46875 C 262.21875,373.44057 335.21568,446.46875 425.1875,446.46875 C 515.15932,446.46875 588.1875,373.44057 588.1875,283.46875 C 588.1875,193.49693 515.15932,120.46875 425.1875,120.46875 z"
       transform="matrix(1.200414,0,0,1.2002923,-300.35097,-130.40746)" />
    <path
       sodipodi:type="inkscape:offset"
       inkscape:radius="-6.0611968"
       inkscape:original="M 425.1875 120.46875 C 335.21568 120.46875 262.21875 193.49693 262.21875 283.46875 C 262.21875 373.44057 335.21568 446.46875 425.1875 446.46875 C 515.15932 446.46875 588.1875 373.44057 588.1875 283.46875 C 588.1875 193.49693 515.15932 120.46875 425.1875 120.46875 z "
       style="fill:#ef3340;fill-opacity:1"
       id="path2543"
       d="M 425.1875,126.53125 C 338.49551,126.53125 268.28125,196.77535 268.28125,283.46875 C 268.28125,370.16215 338.49551,440.40625 425.1875,440.40625 C 511.87949,440.40625 582.125,370.16074 582.125,283.46875 C 582.125,196.77676 511.87949,126.53125 425.1875,126.53125 z"
       transform="matrix(1.200414,0,0,1.2002923,-300.35097,-130.39217)" />
    <g
       id="g2675"
       transform="matrix(0.5674463,0,0,0.5488969,321.42012,207.79849)"
       style="fill:#f8e600;fill-opacity:1">
      <g
         transform="matrix(2.2748937,0,0,2.2936459,-1163.5098,-683.60347)"
         id="g2651"
         style="fill:#f8e600;fill-opacity:1">
        <path
           style="fill:#f8e600;fill-opacity:1"
           id="path2653"
           d="M 459.2124,283.55078 C 497.05811,302.46826 508.81934,350.66895 508.81934,368.50391 L 494.64551,368.50391 C 494.64551,335.75244 482.62256,308.64844 454.96045,283.55078 C 482.62256,258.43896 494.64551,231.15332 494.64551,198.42529 L 508.81934,198.42529 C 508.81934,216.23828 497.05811,264.62988 459.2124,283.55078" />
        <path
           style="fill:#f8e600;fill-opacity:1"
           id="path2655"
           d="M 452.12598,283.55078 C 466.32129,295.92871 492.16357,321.92236 491.81104,368.50391 L 477.6377,368.50391 C 477.6377,347.76855 470.42676,311.20605 447.87402,283.55078 C 470.42676,255.89307 477.6377,219.1582 477.6377,198.42529 L 491.81104,198.42529 C 492.16357,244.98242 466.32129,271.18262 452.12598,283.55078" />
        <path
           style="fill:#f8e600;fill-opacity:1"
           id="path2657"
           d="M 445.03955,283.55078 C 454.86621,295.5415 475.16211,325.56641 474.80322,368.50391 L 460.62988,368.50391 C 461.36572,349.58008 457.51123,306.4502 440.7876,283.55078 C 457.51123,260.62354 461.36572,217.33545 460.62988,198.42529 L 474.80322,198.42529 C 475.16211,241.35107 454.86621,271.54492 445.03955,283.55078" />
        <path
           style="fill:#f8e600;fill-opacity:1"
           id="path2659"
           d="M 437.95264,283.55078 C 446.66504,293.73242 458.53076,327.01416 457.79492,368.50391 L 443.62207,368.50391 C 443.62207,345.57471 443.88672,304.64111 433.70068,283.55078 C 443.88672,262.44531 443.62207,221.33008 443.62207,198.42529 L 457.79492,198.42529 C 458.53076,239.89014 446.66504,273.354 437.95264,283.55078" />
        <path
           style="fill:#f8e600;fill-opacity:1"
           id="path2661"
           d="M 426.61426,368.50391 L 440.7876,368.50391 C 441.14941,337.2002 439.24463,302.10693 430.86621,283.55078 C 439.24463,264.99268 441.14941,229.69385 440.7876,198.42529 L 426.61426,198.42529 L 426.61426,368.50391 z" />
      </g>
      <g
         transform="matrix(2.2748937,0,0,2.2936459,-1163.5098,-683.60347)"
         id="g2663"
         style="fill:#f8e600;fill-opacity:1">
        <path
           style="fill:#f8e600;fill-opacity:1"
           id="path2665"
           d="M 391.18164,283.55078 C 353.33594,302.46826 341.57422,350.66895 341.57422,368.50391 L 355.74805,368.50391 C 355.74805,335.75195 367.77148,308.64844 395.43359,283.55078 C 367.77148,258.43896 355.74805,231.15332 355.74805,198.42529 L 341.57422,198.42529 C 341.57422,216.23828 353.33594,264.62988 391.18164,283.55078" />
        <path
           style="fill:#f8e600;fill-opacity:1"
           id="path2667"
           d="M 398.26758,283.55078 C 384.07227,295.92871 358.23047,321.92236 358.58301,368.50391 L 372.75586,368.50391 C 372.75586,347.76855 379.9668,311.20605 402.51953,283.55078 C 379.9668,255.89307 372.75586,219.1582 372.75586,198.42529 L 358.58301,198.42529 C 358.23047,244.98242 384.07227,271.18262 398.26758,283.55078" />
        <path
           style="fill:#f8e600;fill-opacity:1"
           id="path2669"
           d="M 405.35449,283.55078 C 395.52734,295.5415 375.23145,325.56641 375.59082,368.50391 L 389.76367,368.50391 C 389.02832,349.58008 392.88281,306.4502 409.60645,283.55078 C 392.88281,260.62354 389.02832,217.33545 389.76367,198.42529 L 375.59082,198.42529 C 375.23145,241.35107 395.52734,271.54492 405.35449,283.55078" />
        <path
           style="fill:#f8e600;fill-opacity:1"
           id="path2671"
           d="M 412.44141,283.55078 C 403.72852,293.73242 391.86328,327.01367 392.59863,368.50391 L 406.77148,368.50391 C 406.77148,345.57422 406.50684,304.64111 416.69336,283.55078 C 406.50684,262.44531 406.77148,221.33008 406.77148,198.42529 L 392.59863,198.42529 C 391.86328,239.89014 403.72852,273.354 412.44141,283.55078" />
        <path
           style="fill:#f8e600;fill-opacity:1"
           id="path2673"
           d="M 423.7793,368.50391 L 409.60645,368.50391 C 409.24414,337.2002 411.14941,302.10693 419.52734,283.55078 C 411.14941,264.99268 409.24414,229.69385 409.60645,198.42529 L 423.7793,198.42529 L 423.7793,368.50391 z" />
      </g>
    </g>
    <path
       sodipodi:type="inkscape:offset"
       inkscape:radius="0"
       inkscape:original="M 204.28125 61.84375 C 187.86345 61.691374 175.41788 70.316741 171.03125 85.40625 C 169.08664 92.09548 169.63697 105.59795 172.125 112.625 C 175.38664 121.83703 183.77987 128.81455 194.625 131.28125 C 203.10136 133.20917 215.57938 132.21656 222.46875 129.0625 C 229.19286 125.9841 231.9575 123.61938 235.8125 117.625 C 240.23898 110.74201 240.07848 110.5625 228.71875 110.5625 C 219.6425 110.5625 218.6412 110.75748 217.625 112.65625 C 215.12723 117.32338 204.13194 119.06672 197.75 115.8125 C 193.61844 113.70576 190.9217 110.19932 190.0625 105.8125 L 189.40625 102.5625 L 214.6875 102.5625 L 239.9375 102.5625 L 239.4375 94.15625 C 238.28531 75.68805 228.98661 65.1419 211.53125 62.4375 C 209.03539 62.050812 206.62665 61.865518 204.28125 61.84375 z M 279.375 61.84375 C 269.32098 62.172715 260.32098 65.049467 255.96875 69.71875 C 253.25764 72.62736 249.71694 80.296879 249.6875 83.3125 C 249.66628 85.48645 249.99547 85.562499 259 85.5625 L 268.3125 85.5625 L 269.75 82.34375 C 271.75179 77.81228 274.96338 76.430828 282.5625 76.84375 C 287.77563 77.12702 289.28835 77.617732 290.8125 79.5 C 295.60348 85.41661 292.18276 87.862007 276.15625 90.09375 C 255.51414 92.96822 248.62713 97.853352 247.84375 110.15625 C 247.62122 113.65109 247.74162 117.6595 248.09375 119.0625 C 249.1718 123.35778 255.45159 129.4272 260.53125 131.0625 C 266.10124 132.85564 277.53249 132.42476 282.65625 130.21875 C 284.58125 129.38995 287.73125 127.53166 289.65625 126.09375 L 293.15625 123.46875 L 294.03125 127.03125 L 294.875 130.5625 L 305.78125 130.5625 C 317.55963 130.5625 318.44656 130.07994 314.4375 125.8125 C 312.27183 123.50725 312.17946 122.59367 311.6875 98.5625 L 311.15625 73.6875 L 308.15625 70.53125 C 303.75791 65.90688 298.64339 63.64594 289.65625 62.375 C 286.20291 61.886633 282.72634 61.734095 279.375 61.84375 z M 49.75 61.9375 C 42.81076 62.086488 36.155471 63.281945 31.84375 65.5 C 25.068737 68.98524 19.656251 76.751129 19.65625 83.03125 C 19.65625 85.56305 19.65745 85.562499 29.15625 85.5625 C 37.13999 85.5625 38.656251 85.325229 38.65625 84 C 38.65625 83.13269 39.986059 81.107689 41.59375 79.5 C 44.117415 76.97633 45.272567 76.562499 50.03125 76.5625 C 53.062753 76.5625 56.653886 77.007584 58.03125 77.53125 C 62.788194 79.33984 63.846595 85.324291 59.78125 87.5 C 58.815243 88.01699 52.652993 89.18935 46.09375 90.09375 C 39.534506 90.99815 32.022753 92.658766 29.40625 93.78125 C 18.548097 98.43937 13.745093 110.54862 18.5625 121.15625 C 20.663191 125.78184 24.87448 129.17729 31 131.1875 C 39.489876 133.97363 54.341945 131.04276 60.375 125.375 C 62.722307 123.16982 63.140116 123.47528 63.875 128.0625 C 64.168938 129.8973 65.086347 130.08337 74.9375 130.34375 C 86.314171 130.64446 87.402189 130.13991 83.90625 126.28125 C 82.363162 124.57805 82.138942 121.6291 81.90625 101.21875 C 81.761107 88.487815 81.400302 77.071158 81.125 75.84375 C 80.239781 71.89709 74.794516 66.750282 69.28125 64.6875 C 63.908686 62.677365 56.68924 61.788512 49.75 61.9375 z M 126.6875 62.15625 C 120.65263 62.17574 114.80458 62.78092 111.75 63.9375 C 101.25987 67.90948 96.133547 75.374548 96.875 85.625 C 97.633903 96.11672 103.37795 100.11941 124.21875 104.59375 C 140.25992 108.03765 141.88732 108.75197 141.46875 112.375 C 140.97812 116.62188 135.75911 118.7881 127.3125 118.25 C 119.72774 117.7668 115.6177 115.55597 114.65625 111.46875 C 114.10871 109.14114 113.73361 109.05651 103.875 108.78125 C 93.821813 108.50056 93.665867 108.53068 93.6875 110.78125 C 93.720316 114.19547 97.025267 120.72871 100.28125 123.78125 C 103.94702 127.21796 110.91066 130.27426 117.78125 131.5 C 125.1211 132.80945 139.0602 132.05317 145.34375 130 C 156.12993 126.47557 162.18155 118.44808 161.46875 108.59375 C 160.68246 97.723395 154.23179 93.12154 134.03125 89.09375 C 116.84512 85.66701 113.89093 83.904559 117.125 78.96875 C 120.14031 74.3668 133.32311 74.47323 137.40625 79.125 C 138.64375 80.53484 139.65625 82.330674 139.65625 83.125 C 139.65625 84.28876 141.63363 84.562499 149.78125 84.5625 L 159.90625 84.5625 L 159.1875 80.84375 C 157.63444 72.56521 151.84922 66.634778 142.65625 63.84375 C 138.91899 62.7091 132.72237 62.13676 126.6875 62.15625 z M 370.65625 62.15625 C 361.57973 62.10819 357.22916 63.504401 352.21875 68.09375 C 350.1294 70.00753 348.23713 71.562499 348.03125 71.5625 C 347.82538 71.5625 347.65625 69.762499 347.65625 67.5625 L 347.65625 63.5625 L 338.15625 63.5625 L 328.65625 63.5625 L 328.65625 97.0625 L 328.65625 130.5625 L 338.65625 130.5625 L 348.65625 130.5625 L 348.6875 109.8125 C 348.70658 91.783415 348.95406 88.541398 350.5625 85 C 352.84027 79.98488 357.42078 77.562499 364.65625 77.5625 C 369.04353 77.5625 370.27226 78.022239 372.75 80.5 L 375.65625 83.40625 L 375.65625 107 L 375.65625 130.5625 L 385.65625 130.5625 L 395.65625 130.5625 L 395.65625 104.53125 C 395.65625 76.252485 395.39663 74.534388 390.0625 69.1875 C 385.31012 64.42374 379.16491 62.2013 370.65625 62.15625 z M 203.78125 76.90625 C 211.29917 76.902913 218.65625 81.843717 218.65625 88.53125 C 218.65625 90.49986 218.10265 90.562499 204.65625 90.5625 C 190.80329 90.5625 190.65255 90.538869 190.65625 88.3125 C 190.66098 85.46454 193.974 80.008117 196.5 78.65625 C 198.7758 77.438278 201.27528 76.907362 203.78125 76.90625 z M 292.65625 98.8125 L 292.65625 103.9375 C 292.65168 110.21653 290.21181 114.59301 285.46875 116.84375 C 277.36083 120.69121 270.45463 119.72365 267.875 114.34375 C 266.81232 112.12751 266.85626 111.07442 268.0625 108.1875 C 269.29241 105.24392 270.33906 104.44418 274.78125 103.125 C 277.67328 102.26616 281.18109 101.55539 282.59375 101.53125 C 284.00643 101.50711 286.84375 100.89229 288.90625 100.15625 L 292.65625 98.8125 z M 61.96875 99.5625 C 62.502227 99.5625 62.726762 101.98246 62.46875 105.09375 C 61.980788 110.97793 59.678398 114.4466 54.53125 117.125 C 47.570107 120.74734 38.358699 119.16495 37.09375 114.125 C 36.171239 110.44942 37.32987 106.84329 40 105.09375 C 41.928164 103.83037 58.862779 99.562499 61.96875 99.5625 z "
       style="fill:#0032a0;fill-opacity:1"
       id="path2586"
       d="M 204.28125,61.84375 C 187.86345,61.691374 175.41788,70.316741 171.03125,85.40625 C 169.08664,92.09548 169.63697,105.59795 172.125,112.625 C 175.38664,121.83703 183.77987,128.81455 194.625,131.28125 C 203.10136,133.20917 215.57938,132.21656 222.46875,129.0625 C 229.19286,125.9841 231.9575,123.61938 235.8125,117.625 C 240.23898,110.74201 240.07848,110.5625 228.71875,110.5625 C 219.6425,110.5625 218.6412,110.75748 217.625,112.65625 C 215.12723,117.32338 204.13194,119.06672 197.75,115.8125 C 193.61844,113.70576 190.9217,110.19932 190.0625,105.8125 L 189.40625,102.5625 L 214.6875,102.5625 L 239.9375,102.5625 L 239.4375,94.15625 C 238.28531,75.68805 228.98661,65.1419 211.53125,62.4375 C 209.03539,62.050812 206.62665,61.865518 204.28125,61.84375 z M 279.375,61.84375 C 269.32098,62.172715 260.32098,65.049467 255.96875,69.71875 C 253.25764,72.62736 249.71694,80.296879 249.6875,83.3125 C 249.66628,85.48645 249.99547,85.562499 259,85.5625 L 268.3125,85.5625 L 269.75,82.34375 C 271.75179,77.81228 274.96338,76.430828 282.5625,76.84375 C 287.77563,77.12702 289.28835,77.617732 290.8125,79.5 C 295.60348,85.41661 292.18276,87.862007 276.15625,90.09375 C 255.51414,92.96822 248.62713,97.853352 247.84375,110.15625 C 247.62122,113.65109 247.74162,117.6595 248.09375,119.0625 C 249.1718,123.35778 255.45159,129.4272 260.53125,131.0625 C 266.10124,132.85564 277.53249,132.42476 282.65625,130.21875 C 284.58125,129.38995 287.73125,127.53166 289.65625,126.09375 L 293.15625,123.46875 L 294.03125,127.03125 L 294.875,130.5625 L 305.78125,130.5625 C 317.55963,130.5625 318.44656,130.07994 314.4375,125.8125 C 312.27183,123.50725 312.17946,122.59367 311.6875,98.5625 L 311.15625,73.6875 L 308.15625,70.53125 C 303.75791,65.90688 298.64339,63.64594 289.65625,62.375 C 286.20291,61.886633 282.72634,61.734095 279.375,61.84375 z M 49.75,61.9375 C 42.81076,62.086488 36.155471,63.281945 31.84375,65.5 C 25.068737,68.98524 19.656251,76.751129 19.65625,83.03125 C 19.65625,85.56305 19.65745,85.562499 29.15625,85.5625 C 37.13999,85.5625 38.656251,85.325229 38.65625,84 C 38.65625,83.13269 39.986059,81.107689 41.59375,79.5 C 44.117415,76.97633 45.272567,76.562499 50.03125,76.5625 C 53.062753,76.5625 56.653886,77.007584 58.03125,77.53125 C 62.788194,79.33984 63.846595,85.324291 59.78125,87.5 C 58.815243,88.01699 52.652993,89.18935 46.09375,90.09375 C 39.534506,90.99815 32.022753,92.658766 29.40625,93.78125 C 18.548097,98.43937 13.745093,110.54862 18.5625,121.15625 C 20.663191,125.78184 24.87448,129.17729 31,131.1875 C 39.489876,133.97363 54.341945,131.04276 60.375,125.375 C 62.722307,123.16982 63.140116,123.47528 63.875,128.0625 C 64.168938,129.8973 65.086347,130.08337 74.9375,130.34375 C 86.314171,130.64446 87.402189,130.13991 83.90625,126.28125 C 82.363162,124.57805 82.138942,121.6291 81.90625,101.21875 C 81.761107,88.487815 81.400302,77.071158 81.125,75.84375 C 80.239781,71.89709 74.794516,66.750282 69.28125,64.6875 C 63.908686,62.677365 56.68924,61.788512 49.75,61.9375 z M 126.6875,62.15625 C 120.65263,62.17574 114.80458,62.78092 111.75,63.9375 C 101.25987,67.90948 96.133547,75.374548 96.875,85.625 C 97.633903,96.11672 103.37795,100.11941 124.21875,104.59375 C 140.25992,108.03765 141.88732,108.75197 141.46875,112.375 C 140.97812,116.62188 135.75911,118.7881 127.3125,118.25 C 119.72774,117.7668 115.6177,115.55597 114.65625,111.46875 C 114.10871,109.14114 113.73361,109.05651 103.875,108.78125 C 93.821813,108.50056 93.665867,108.53068 93.6875,110.78125 C 93.720316,114.19547 97.025267,120.72871 100.28125,123.78125 C 103.94702,127.21796 110.91066,130.27426 117.78125,131.5 C 125.1211,132.80945 139.0602,132.05317 145.34375,130 C 156.12993,126.47557 162.18155,118.44808 161.46875,108.59375 C 160.68246,97.723395 154.23179,93.12154 134.03125,89.09375 C 116.84512,85.66701 113.89093,83.904559 117.125,78.96875 C 120.14031,74.3668 133.32311,74.47323 137.40625,79.125 C 138.64375,80.53484 139.65625,82.330674 139.65625,83.125 C 139.65625,84.28876 141.63363,84.562499 149.78125,84.5625 L 159.90625,84.5625 L 159.1875,80.84375 C 157.63444,72.56521 151.84922,66.634778 142.65625,63.84375 C 138.91899,62.7091 132.72237,62.13676 126.6875,62.15625 z M 370.65625,62.15625 C 361.57973,62.10819 357.22916,63.504401 352.21875,68.09375 C 350.1294,70.00753 348.23713,71.562499 348.03125,71.5625 C 347.82538,71.5625 347.65625,69.762499 347.65625,67.5625 L 347.65625,63.5625 L 338.15625,63.5625 L 328.65625,63.5625 L 328.65625,97.0625 L 328.65625,130.5625 L 338.65625,130.5625 L 348.65625,130.5625 L 348.6875,109.8125 C 348.70658,91.783415 348.95406,88.541398 350.5625,85 C 352.84027,79.98488 357.42078,77.562499 364.65625,77.5625 C 369.04353,77.5625 370.27226,78.022239 372.75,80.5 L 375.65625,83.40625 L 375.65625,107 L 375.65625,130.5625 L 385.65625,130.5625 L 395.65625,130.5625 L 395.65625,104.53125 C 395.65625,76.252485 395.39663,74.534388 390.0625,69.1875 C 385.31012,64.42374 379.16491,62.2013 370.65625,62.15625 z M 203.78125,76.90625 C 211.29917,76.902913 218.65625,81.843717 218.65625,88.53125 C 218.65625,90.49986 218.10265,90.562499 204.65625,90.5625 C 190.80329,90.5625 190.65255,90.538869 190.65625,88.3125 C 190.66098,85.46454 193.974,80.008117 196.5,78.65625 C 198.7758,77.438278 201.27528,76.907362 203.78125,76.90625 z M 292.65625,98.8125 L 292.65625,103.9375 C 292.65168,110.21653 290.21181,114.59301 285.46875,116.84375 C 277.36083,120.69121 270.45463,119.72365 267.875,114.34375 C 266.81232,112.12751 266.85626,111.07442 268.0625,108.1875 C 269.29241,105.24392 270.33906,104.44418 274.78125,103.125 C 277.67328,102.26616 281.18109,101.55539 282.59375,101.53125 C 284.00643,101.50711 286.84375,100.89229 288.90625,100.15625 L 292.65625,98.8125 z M 61.96875,99.5625 C 62.502227,99.5625 62.726762,101.98246 62.46875,105.09375 C 61.980788,110.97793 59.678398,114.4466 54.53125,117.125 C 47.570107,120.74734 38.358699,119.16495 37.09375,114.125 C 36.171239,110.44942 37.32987,106.84329 40,105.09375 C 41.928164,103.83037 58.862779,99.562499 61.96875,99.5625 z"
       transform="matrix(0.5932776,0,0,0.6159925,87.750024,267.23262)" />
  </g>
</svg>
