<svg xmlns="http://www.w3.org/2000/svg" viewBox="0 0 424.05902 120.20356"><defs><style>.cls-1{fill:#009ddc;}.cls-2{fill:#66b7e6;}</style></defs><title>Asset 11</title><path class="cls-1" d="M224.69177,55.44745c-14.61687,0-23.62493-8.15824-23.62493-24.13482V.20931h12.06741v30.7634c0,8.83811,4.41906,13.42712,11.72747,13.42712s11.72747-4.419,11.72747-13.08719V.20931h12.06742v30.7634C248.48667,47.45917,239.30865,55.44745,224.69177,55.44745Z"/><path class="cls-1" d="M294.37682,54.59764,268.03247,19.92508V54.59764H256.135V.20931h11.04763l25.49453,33.48281V.20931h11.89745V54.7676H294.37682Z"/><path class="cls-1" d="M64.07625,119.69367H53.70848L41.4711,84.00133,29.23373,119.69367H18.866L0,64.79544H12.91723l11.21759,36.88208,12.23737-37.052H46.57l12.23738,37.052L70.19494,64.79544h12.5773Z"/><path class="cls-1" d="M109.62647,120.20356c-16.82639,0-28.8938-12.5773-28.8938-28.044v-.17c0-15.46668,12.23738-28.21394,29.06376-28.21394s28.8938,12.5773,28.8938,28.044v.17C138.52027,107.4563,126.2829,120.20356,109.62647,120.20356Zm16.48647-28.21395c0-9.348-6.79854-17.16632-16.48646-17.16632S93.31,82.47165,93.31,91.81965v.17c0,9.348,6.79854,17.16631,16.48645,17.16631,9.518,0,16.3165-7.64835,16.3165-17.16631Z"/><path class="cls-1" d="M186.45,119.18377V83.6614l-15.29672,23.285h-.33992l-15.12675-23.115v35.3524H143.95911V64.79544h12.91723l14.27693,22.94508,14.27694-22.94508h12.91723v54.38833Z"/><path class="cls-1" d="M207.69542,119.18377V64.79544h40.96122V75.50315H219.42292V86.55078h25.83445V97.25849h-25.6645V108.646h29.57364v10.7077H207.69542Z"/><path class="cls-1" d="M294.20687,119.18377,267.86252,84.51121v34.67256H255.96508V64.79544h11.04763l25.49453,33.48281V64.79544h11.89744v54.38833Z"/><path class="cls-1" d="M180.50127,12.10676c4.24909,7.13846,3.39927,18.01613-1.8696,24.47474A22.85338,22.85338,0,1,1,148.88805,3.09869c6.11869-3.7392,15.46668-4.24909,21.9253-.67985A25.26418,25.26418,0,0,1,180.50127,12.10676ZM160.95546,1.22909V4.28843c0-.17.17-.17.33992-.17a.42045.42045,0,0,1,.17.67986h0a12.67326,12.67326,0,0,1,4.419.67985c1.52968.17,2.71942,2.03957,4.24909,1.01978.33992.50989,1.18974,0,1.35972.67986.50989.17.84981.67985,1.18974,1.01978,0,.50988.50989.67985.67985,1.18974h0a4.72341,4.72341,0,0,1,2.03956-2.03956,20.725,20.725,0,0,0-10.87767-5.43884A14.589,14.589,0,0,0,160.95546,1.22909ZM145.48878,7.17781l2.54946,2.37949a17.50451,17.50451,0,0,1,11.72748-4.92894,11.37911,11.37911,0,0,1,0-3.39927A23.00859,23.00859,0,0,0,145.48878,7.17781ZM176.932,1.90894l1.69963,1.69964a23.49876,23.49876,0,0,0,6.28865,6.62858c-.5099-1.01978-.67986-2.20953-1.18974-3.22931C182.71079,4.28843,179.65145,2.92872,176.932,1.90894Zm-33.31286.33993c-2.03956.84982-4.24909,1.52967-5.77877,3.39927-1.18974,1.52968-1.52967,3.39927-2.20953,5.09891l1.8696-1.52968C140.2199,7.34778,140.89976,4.28843,143.61918,2.24887Zm19.88574.67985-1.52968.67986c-.17.17-.67986-.17-.67986.33993l1.01978.50989c1.01978-.50989,2.03956.33993,2.88938-.67986C165.03459,3.09869,164.18477,3.09869,163.50492,2.92872Zm19.71576,2.03957c2.20953,1.52967,2.03956,4.24908,2.88938,6.45861.17,1.01978.84981,1.86959.84981,2.71941-1.18973-3.56923-5.26886-3.90916-6.79854-7.13847l.5099,1.8696c1.18974,3.7392,5.6088,4.759,7.30844,8.15825-.5099-2.54946.33992-5.09891-.33993-7.4784A7.01093,7.01093,0,0,0,183.22068,4.96829ZM133.7613,8.36756c-1.69964,2.54945-.33992,6.11868-.84982,9.00806a13.12984,13.12984,0,0,1,2.88938-3.22931c2.37949-1.52967,4.589-4.07912,4.589-6.79854-1.35972,3.22931-5.43883,3.7392-6.45862,7.13847h-.17c1.52967-2.88938.67985-6.9685,3.56923-9.178A6.37088,6.37088,0,0,0,133.7613,8.36756ZM160.95546,5.8181a11.39487,11.39487,0,0,1,0,3.39927,12.13588,12.13588,0,0,1,7.30844,2.3795c-.17-.17-.5099-.50989-.33992-.84982h.17c0-.33993-.5099-.50989-.33992-1.01978.50989,0,.84981.67986,1.18974,1.18975,1.52967,0,.67985,1.69963,1.69963,2.20952.33992.17,0,.67986.33992.67986.33993.33993.67986.50989.67986,1.01978.17.67985.67986-.17,1.01978.17.33992.17-.17.33993-.17.67985.17,0,.33992-.17.50989,0,0,.33993-.17.33993-.33992.50989-.17.50989.33992.17.5099.33993a2.38072,2.38072,0,0,1,0,1.8696c.50989.50989,0,1.18974-.17,1.69963-.33993.33993-.5099,1.18975-1.18974,1.01978-.17.33993.17.67986,0,.84982h1.35971c-.67986-1.01978.17-2.03956.5099-2.88938.17,0,.33992-.33993.50989,0,0,.50989-.17.84982-.17,1.18974.33992.50989.17,1.18975.33992,1.69964h3.22931a18.00205,18.00205,0,0,0-1.52967-6.11869,7.36118,7.36118,0,0,1-.84982.17,9.34118,9.34118,0,0,0-1.18974-1.52968c-.50989,0-.67986-.33993-1.01978-.50989-.67985,0-.50989-1.01978-1.18974-.84982a1.39616,1.39616,0,0,1-.84981-.84981c0-.50989,0-1.18975-.5099-1.52968-.33992-.17-.5099,0-.67986.17-.33992.33993-.50989-.17-.50989-.50989-.5099-.33992,0-.67985-.17-1.18974-.67986-.50989-.33993-1.52968-1.18974-1.8696A13.362,13.362,0,0,0,163.505,5.98806,11.25506,11.25506,0,0,1,160.95546,5.8181Zm9.68792,0c-.17,0-.17.33993,0,.33993.50989,0,.50989,1.01978,1.18974.67986l-.17-.67986C171.4932,5.8181,170.98331,5.98806,170.64338,5.8181Zm-21.9253,4.589a15.74877,15.74877,0,0,1,2.37949,2.37949,12.09988,12.09988,0,0,1,8.49818-3.56923V5.98807A17.24961,17.24961,0,0,0,148.71808,10.40712Zm27.36414-2.54945-2.20953,2.37949h-.33992c.33992,0,.17.33993.33992.50989,1.01978.67986,1.35971,1.52967,2.20953,2.37949.33992.67986,1.01978,1.18975,1.01978,2.03956a15.22049,15.22049,0,0,1,1.69963,7.13847,23.938,23.938,0,0,1,3.39927-.17l-.17-.17A22.03061,22.03061,0,0,0,176.08222,7.85767Zm-31.27329.50989-.17-.33993a22.53746,22.53746,0,0,0-5.94873,14.4469h3.39927a9.93413,9.93413,0,0,1,.33993-3.22931,17.23482,17.23482,0,0,1,4.589-8.66814Zm43.17074.67985c1.52967,2.3795.67985,5.6088.50989,8.15825a30.08764,30.08764,0,0,1,.17,3.90916c-.17-.50989-.17-1.01978-.33992-1.52967-.67986-2.88938-4.07913-4.419-5.43883-6.79854a9.74274,9.74274,0,0,0,.67986,2.37949c1.18974,3.39927,4.759,5.77876,5.26887,9.51795.33992-3.56923,2.88937-6.45861,1.86959-10.36777A9.87875,9.87875,0,0,0,187.97967,9.04741Zm-55.57808.50989a14.39472,14.39472,0,0,0-2.54946,5.09891c-.84982,3.90916,1.52968,6.9685,2.03956,10.53774.67986-4.41905,5.43883-7.30843,5.6088-12.06741-1.35971,2.54945-4.759,4.07913-5.43883,6.9685a3.202,3.202,0,0,1-.33992,1.35971l-.17-.17.17-1.8696C132.74152,16.18588,130.702,12.44668,132.40159,9.5573Zm27.36412.84982h0c-3.05935.17-5.43883,1.52967-7.81832,3.39927a28.22318,28.22318,0,0,1,2.37949,2.20953,7.77016,7.77016,0,0,1,5.26887-2.20953A21.6702,21.6702,0,0,1,159.76571,10.40712Zm1.18975,0a10.29011,10.29011,0,0,1,0,3.22931,9.78374,9.78374,0,0,1,5.43883,2.20952,7.25648,7.25648,0,0,1,2.37949-2.20952A12.938,12.938,0,0,0,160.95546,10.40712Zm-13.0872.84982v.17a17.32591,17.32591,0,0,0-4.419,11.04763h3.39927l-.17-.17a13.67156,13.67156,0,0,1,3.56924-8.66814A31.40856,31.40856,0,0,1,147.86826,11.25694Zm21.75534,3.05934c-1.01978,1.18975-2.20953,2.37949-3.22931,3.39927a.36556.36556,0,0,0,.33992.33993c.17-.33993,0-1.18975.84982-1.01978.67986.17,1.35971.17,2.03956.33993.33992.17.50989.67986.84981,1.01978.17.17,0,.33993-.17.50989a.16646.16646,0,0,0,.17.17c.17-.17.5099-.50989.84982-.33993.33992,0,.5099.67986.84982.67986.17.17-.17.50989-.33992.50989,0,.33992-.33992.50988-.17.84981a.62441.62441,0,0,0,.50989-.17c.84982-.67985.17-1.35971,0-2.03956-.33992-.67986-1.01978-.84982-1.52967-1.35971,0-.17.17-.50989.33992-.50989C171.15327,15.846,170.1335,15.1661,169.6236,14.31628Zm-18.526.17a16.83956,16.83956,0,0,0-1.86959,2.88938,16.094,16.094,0,0,0-1.35972,5.09891H149.228a2.15577,2.15577,0,0,1-.17-1.01978c.33992-.67986.50989-1.8696,1.52967-1.8696.5099-.17,0-.50989.33992-.67985.67986-.17.84982-.84982,1.52968-1.18975.50989,0,.67985-.84982,1.35971-1.01978A8.64706,8.64706,0,0,1,151.09757,14.48624Zm9.85789.33993v2.37949l.84982.33993c.17-.50989.67986-.50989,1.01978-1.01978.33992-.17.33992.17.33992.33993.17,1.01978-1.01978,1.52967-1.69963,1.8696h.17c.67985-.67986,1.01978.84981,1.69963.17.17-.84982,1.35972-.84982,1.69964-1.69964-.17.17-.33992,0-.5099-.17,0-.33993.5099-.50989.67986-.67986A12.36876,12.36876,0,0,0,160.95546,14.82617Zm-1.35971.17a6.80218,6.80218,0,0,0-4.759,2.37949c.33992.17.84981.17,1.18973.50989.17.17-.17.17-.17.33993.33993.33992.33993,0,.5099-.17.33992.33992.5099.50988.84982.33992.17.33993.50989,0,.67985,0,.17-.33992.5099-.50989.33993-.84981.17-.17.17-.67986.50989-.67986-.17,1.01978.67986,0,1.01978.50989C159.59575,16.69577,159.76571,15.676,159.59575,14.99614Zm32.12311,2.37948c.50989,3.39927-1.52968,6.11869-2.37949,9.00807-.5099,1.18974-.33993,2.54945-1.01978,3.56923,0-.50989.33992-1.18975.33992-1.69964.5099-3.90916-2.88937-6.11868-3.56923-9.348a12.86418,12.86418,0,0,0,.17,2.54945c.17,4.07913,2.88937,7.30843,2.03956,11.55752.84981-1.01978,1.35971-2.03956,2.20953-3.05934C192.56868,26.89358,193.41849,21.45475,191.71886,17.37562Zm-62.54658.50989a12.64849,12.64849,0,0,0-.17,8.66814c.67986,2.71941,3.39928,4.589,4.759,7.13847a10.29011,10.29011,0,0,1,0-3.22931c.84982-3.56923,2.37949-6.9685,2.03956-10.87767-.5099,2.88938-3.05935,4.759-3.39927,7.81832a21.669,21.669,0,0,0,.17,3.39927,3.42618,3.42618,0,0,1-.5099-1.8696C131.55177,24.854,128.49243,21.96464,129.17228,17.88551Zm30.42347,1.35971h0c.17.33993.33992.84982,0,1.01978-.33992.50989-1.35971.33993-1.35971,1.01978-1.01978.33993-.67986,1.52968-1.01978,2.37949-.67986.17-.33992-.67985-.67986-.84981l-.17.17c-1.01978-.67986-.84982.84981-1.35971,1.01978.67985.17,1.18974-.17,1.86959-.33993a.5934.5934,0,0,1,.17.33993h.17a.62438.62438,0,0,0,.17-.50989.32566.32566,0,0,1,.50989-.17c0,.17.17.33992.33992.50988l-.33992.50989c-.17.17,0,.84982-.50989.84982-.17,0-.17,0-.17-.17h-.17l.33993.50989c.33992,0,.17-.50989.67985-.67986.33992,0,.33992-.50989.33992-.84981.5099-.33993,1.01978-.17,1.52968-.17.17.17.33992.17.33992.33993.17.33993-.17.84982-.33992,1.18975.17.17-.17.33993-.17.67986-.33992.50989-.84982.17-1.35972.33992a2.86817,2.86817,0,0,0,2.3795.67986c.84981,0,.50989-1.01978,1.01977-1.35971H162.825a2.15571,2.15571,0,0,0,.17-1.01977c-.33992-.17-.17-.50989-.17-.84982-.17-.33993-.17-.67986-.67985-.84982-.17-.17.17-.33993.17-.50989.67985-.17-.33992-.67986,0-1.01978-.67986-.17-.84982-1.3597-1.8696-.84982-.17-.33992-.84982-.50988-.84982-.84981s.84982-.17.67986-.17l-.17-.17C160.10565,19.07526,159.76571,19.07526,159.59575,19.24522Zm-9.178,2.71942c-.84982.17,0,1.01978,0,1.52967,0,.33993-.5099.17-.67986.33993.17.67986-.5099.84982-.84982.84982-.17.50989.33992.67986.17,1.01978a2.47574,2.47574,0,0,1,.84982,2.03956,4.66526,4.66526,0,0,1,.33992,2.20953,1.92994,1.92994,0,0,1,.5099,1.3597c0,.33993-.33992.33993-.5099.50989-.17.33993.17.17.17.33993l2.88938-2.88938a8.27891,8.27891,0,0,1-2.03956-4.24909l-.33992-.17c0,.33993,0,1.01978-.33992,1.18975-.17-.17-.5099-.33993-.5099-.67986a.6244.6244,0,0,1,.5099-.17v-.50989c0-.17-.33992-.33993,0-.67986.17,0,.33992.33993.50989.33993l.5099-.33993c-.17-.50989.17-1.18974,0-1.86959C151.26753,21.79468,150.75765,21.96464,150.41772,21.96464Zm21.07548.33993h0Zm-.33993,1.18974.5099.67986c0,.67986,1.01978,1.01978,1.01978,1.69963.17-.67985.17-1.52967.33992-2.20952C172.513,23.49431,171.66316,23.83423,171.15327,23.49431Zm7.4784,0,.17.17a18.34694,18.34694,0,0,1-4.92894,11.72749c.84982.67986,1.69963,1.69964,2.54945,2.37949A21.87641,21.87641,0,0,0,181.861,26.72362a21.252,21.252,0,0,1,.50989-3.22931,11.14873,11.14873,0,0,1-3.39927.17Zm-4.24909,0c.17.50989-.17.84982-.17,1.35971-.50989.67986.5099,1.01978.33992,1.69964-.17.17-.33992.17-.67985,0a12.15465,12.15465,0,0,1-3.05935,5.60879h-.17c.33992.17.67986.84982,1.01978.84982v-.33993a.59339.59339,0,0,1,.33992-.17c.84982.33993.84982,1.35971,1.01978,1.86959a15.92539,15.92539,0,0,0,4.24909-7.98828,16.41126,16.41126,0,0,1,.50989-3.05934A7.79087,7.79087,0,0,1,174.38258,23.49431Zm-26.68428,0a5.78461,5.78461,0,0,1,.33992,2.37949c0-.33992.84982-.84981.17-1.18974.33992-.33993,0-1.18975.50989-1.18975A.63737.63737,0,0,1,147.6983,23.49431Zm-8.8381.17A22.28522,22.28522,0,0,0,144.639,37.94121a32.63,32.63,0,0,1,2.54945-2.37949c-.5099-.33993-.67986-.84982-1.18974-1.18975a1.98347,1.98347,0,0,1-1.01978-1.01977.16646.16646,0,0,1-.17.17c-.5099.17-.67986-.33993-1.01978-.50989s0-.84982-.50989-.50989c-.33993-.50989-.84982-.50989-1.01978-1.01978l-.17.33993c-.33993,0-.67986-.50989-.84982-.67986-.84982.17-.5099-.84982-.84982-1.18974a2.36014,2.36014,0,0,1,.33992-1.8696c.17-.17.67986,0,.84982.17.33992.17.17-.33993.33992-.33993.5099-.50989.84982.17,1.18974.50989a9.67893,9.67893,0,0,1-.67985-4.419A31.13713,31.13713,0,0,0,138.8602,23.66427Zm4.419,0h0c.17,1.69964.67986,3.22931.84982,4.589.17-.17,0-.50989.33992-.50989a5.538,5.538,0,0,1,.67986-2.20952c.67986,0,.67986-1.01978,1.35971-.84982l.5099.50989a1.94889,1.94889,0,0,1-.17-1.69964A8.45209,8.45209,0,0,1,143.27925,23.66427Zm9.348,1.35971.17.33993a15.06657,15.06657,0,0,0,1.35971,2.88938l1.01978-1.01978v-.33993c-.17-.33992,0-.67985-.33992-.84981,0,.17.17.33992,0,.50989a1.69692,1.69692,0,0,1-.84982-.67986c0-.50989-.33992-.17-.5099-.33993C153.47706,25.024,152.79721,25.36391,152.62725,25.024Zm3.56923.84982c0,.33993-.33992.50989-.5099.84982.33992-.17.5099-.50989.84982-.50989Zm29.40369.33993c-2.03955,4.419-.50989,10.19781-3.05934,14.27694l.33992-.33993c4.759-2.54946,10.53773-6.9685,9.68791-13.42712a5.53263,5.53263,0,0,1-.67985,2.37949c-1.8696,2.88938-5.09891,5.26886-6.62858,8.32821,0,.17-.17.17-.17,0l.33992-.33992C187.46977,33.86209,185.43021,29.95293,185.60017,26.21373Zm-20.39562.33993c-.50989.67985.5099.67985.5099,1.18974h.33992a1.02191,1.02191,0,0,0-.17-.67986C165.37451,27.06354,165.37451,26.55366,165.20455,26.55366Zm-29.91358.17a14.58023,14.58023,0,0,1-.33992,3.90916,9.16879,9.16879,0,0,0,1.01978,7.30843c-.5099-.17-.84982-.84982-1.01978-1.35971-1.69963-3.39927-6.28864-5.26887-6.62858-9.348a12.63369,12.63369,0,0,0,.5099,4.419c1.18974,4.589,6.28864,6.96851,9.68791,9.178C135.97082,36.75147,137.33053,30.9727,135.291,26.72362Zm35.69234.17c-.67985-.50989-.50989.33993-1.01978.33993-.17,0-.17-.33993-.17-.50989a1.72037,1.72037,0,0,1-.67985,1.18975c-1.01978-.33993-.67986,1.18974-1.69964.84982.17.33992.5099,0,.84982,0a.5264.5264,0,0,0,.17-.33993.81741.81741,0,0,1,1.01978-.33993,1.4927,1.4927,0,0,1,.17,1.18975,1.02186,1.02186,0,0,0-.17.67985c-.33992.50989-.17,1.52968-1.01978,1.35971a9.9253,9.9253,0,0,0-3.05935-.67986v.17c.67986.17,1.52968.17,2.03956.84982.67986,0,1.35971.17,1.8696-.17a1.543,1.543,0,0,1,.50989-1.18975c.33992,0,.33992.50989.5099.84982a11.06613,11.06613,0,0,0,2.54945-4.589A15.15291,15.15291,0,0,1,170.98331,26.89358Zm-13.767,0-2.03956,2.3795a11.20118,11.20118,0,0,0,4.07913,1.86959,2.89241,2.89241,0,0,1,.17-1.18974c.17-.17.50989,0,.67986-.17,0-.17-.17-.17-.33993-.33992-.17-.33993,0-.50989,0-.67986.17-.17-.17-.50989.17-.67986-.67985.33993-1.18974-.17-1.86959-.33993C157.89611,27.40347,157.38623,27.40347,157.21626,26.89358Zm6.62858,2.20953c.17-.33993.84982-.33993.84982-.67986C164.35473,28.42325,163.84484,28.76318,163.84484,29.10311Zm1.18975.50989c-.17.17-.5099.17-.5099.33993-.33992.33992-.67985,0-.84981-.17,0,.17.33992.33993,0,.50989-.33993.33993-.5099-.17-.84982-.17-.17.84982-.5099-.33993-1.01978,0-.17-.50989-.5099.17-.84982,0-.33992.17-.33992.84982-.84981.84982-.17.33993-.5099.17-.5099.33993.17.33993.5099.17.84982.17.33992-.33993.84981-.17,1.35971-.17,0,.84982.84982.17,1.18974.67986.33992,0,.33992-.33993.5099-.50989a2.89024,2.89024,0,0,0,1.69963-1.01978C165.20455,30.12289,165.37451,29.783,165.03459,29.613Zm-10.87767.33993a15.74969,15.74969,0,0,1-2.37949,2.37949h.17a12.63523,12.63523,0,0,0,6.45862,3.05934c-.84982-.17-1.18974-.84982-1.52967-1.52967-.17-.50989.50989-.67986.33992-1.18975a1.96686,1.96686,0,0,1,1.18974-.84982,1.848,1.848,0,0,0-.84982.17A6.09844,6.09844,0,0,1,154.15692,29.95293Zm29.40368,2.71941L181.691,35.05183c-2.37949,3.39927-2.20953,7.81832-5.43883,10.7077a51.07959,51.07959,0,0,1,5.43883-1.18974c4.07913-1.01978,8.32821-4.929,8.8381-9.178a9.60285,9.60285,0,0,1-3.7392,4.07913,35.13312,35.13312,0,0,0-7.64836,4.589h-.17l.17-.17C182.88076,41.34048,181.861,36.41154,183.5606,32.67234Zm-13.767.33993h0c-1.52967,1.18974.84982,1.18974.84982,2.20952-.17.50989-1.01978,1.01978-.5099,1.52968.17.17-.17.33993-.17.50989l2.20953-1.8696a.74739.74739,0,0,1-.84981-.17C171.4932,34.202,170.30346,33.69212,169.79356,33.01227Zm-32.29307,0,.67986,1.52967c.67985,3.56923.84982,7.4784,4.07912,9.68792h0c-1.01977-.50988-1.86959-1.3597-2.71941-1.86959-3.05935-2.03957-7.13846-2.88938-8.8381-6.62858a12.08908,12.08908,0,0,0,4.589,6.9685c2.71942,2.37949,6.45862,2.20952,9.85789,3.22931a7.77083,7.77083,0,0,1-2.37949-3.39927C141.06972,39.30092,140.04994,35.73168,137.50049,33.01227Zm14.27694.84982.17.33992Zm.33992.33992c0,.33993.5099.33993.33992.84982-.67985.50989-1.52967.17-2.37949.67986-.67986.33993-1.18974-.33993-1.52967-.33993a17.43808,17.43808,0,0,0,10.87767,4.589l.33992.17a10.29011,10.29011,0,0,1,0-3.22931A11.414,11.414,0,0,1,152.11735,34.202Zm20.90552,1.8696a8.90832,8.90832,0,0,1-1.8696,1.69964c-2.20953.84981-2.37949,3.2293-4.589,4.07912-.84981.33993-1.35971-.84982-2.03955-1.01978a12.72578,12.72578,0,0,1-3.56923.33993v3.56923l.17-.17a21.73894,21.73894,0,0,0,14.27694-5.94872A32.62651,32.62651,0,0,1,173.02287,36.07161Zm-25.15461.17-2.37949,2.37949a23.41458,23.41458,0,0,0,14.27694,5.94872l-.17-.17a20.56958,20.56958,0,0,1,.17-3.22931h0A16.43437,16.43437,0,0,1,147.86826,36.24158Zm12.91724.84982.17.33992v2.71942a7.044,7.044,0,0,1,2.54946-.33993c-.5099-.33993-1.01978-.33993-1.18974-1.01978-.33993-.50989.17-.84982.17-1.18975C161.97524,37.26136,161.12542,37.60128,160.7855,37.0914Zm18.18609,2.54945c-2.37949,1.52967-4.589,4.24909-6.79854,6.11868-1.18974,1.01978-2.71941,1.18975-4.07912,1.69964,3.22931.17,5.77876,1.69963,9.178,1.52967A10.13825,10.13825,0,0,0,185.77014,43.55c-2.54946,2.88938-6.45862,2.71941-10.02786,3.05934a25.78474,25.78474,0,0,1-3.56923.50989.16646.16646,0,0,1,.17-.17C176.25218,46.60935,177.272,42.36026,178.97159,39.64085Zm-37.052.17c1.69964,1.8696,1.69964,4.41905,3.90917,5.94872.84981.84982,2.03955.84982,3.05934,1.35971-1.01977.17-2.03955-.33993-3.2293-.33993-3.7392-.50989-7.81832,0-10.53774-2.88938a10.94763,10.94763,0,0,0,5.6088,4.759c4.24909,1.69963,8.15826-.67986,12.23737-1.18975C148.37816,47.28921,145.82871,42.02033,141.91954,39.81081ZM172.683,49.83866c-3.56923-1.69964-7.81832-3.56923-12.06741-1.8696a12.74731,12.74731,0,0,0-7.13846,0c-3.73919,1.69964-8.8381,4.24909-12.74727,1.35971a8.26592,8.26592,0,0,0,2.3795,1.8696,9.08881,9.08881,0,0,0,8.83809.17c2.3795-1.01978,4.24909-4.07913,7.30844-3.05934a26.15038,26.15038,0,0,0-7.13846,5.0989l1.35971,1.18975a19.18944,19.18944,0,0,1,7.30844-5.94873,26.0405,26.0405,0,0,1,7.13846,5.77877l1.35971-1.18975a34.30414,34.30414,0,0,0-7.13846-5.09891,4.85116,4.85116,0,0,1,2.20953,0c2.71942,1.18975,4.92895,3.56924,7.98828,4.07913a8.94375,8.94375,0,0,0,8.32822-3.22931l-1.52968.84982A9.37347,9.37347,0,0,1,172.683,49.83866Z"/><path class="cls-1" d="M379.01866,17.03569a119.07556,119.07556,0,0,0,20.0557-2.71941V.20931h-20.0557Z"/><path class="cls-1" d="M419.64,16.18588a73.42048,73.42048,0,0,1-11.72747,4.759V36.41154A57.55583,57.55583,0,0,0,424.059,18.05548v-4.419C422.69928,14.48624,421.16962,15.33606,419.64,16.18588Z"/><path class="cls-1" d="M399.24433,41.68041h0v-18.526a124.30916,124.30916,0,0,1-20.0557,2.54945V47.2892A58.88141,58.88141,0,0,0,399.24433,41.68041Z"/><path class="cls-1" d="M407.91246.20931V11.59687A55.03287,55.03287,0,0,0,424.059,2.92873V.20931Z"/><path class="cls-2" d="M368.48093.20931H347.40546V13.97636a101.72787,101.72787,0,0,0,21.07547,2.88938Z"/><path class="cls-2" d="M338.90728,11.4269V.20931H323.61057V2.92872a54.33053,54.33053,0,0,0,8.3282,5.43884C334.1483,9.38734,336.35783,10.40712,338.90728,11.4269Z"/><path class="cls-2" d="M368.48093,25.70384a116.97422,116.97422,0,0,1-21.07547-2.71942v18.1861a58.2548,58.2548,0,0,0,21.07547,6.11869Z"/><path class="cls-2" d="M338.90728,35.73168V20.60493a70.58354,70.58354,0,0,1-15.29671-6.96851v4.589A55.84087,55.84087,0,0,0,338.90728,35.73168Z"/><path class="cls-2" d="M347.40546,102.01746V92.15957h21.07547V82.47165H347.40546V72.61376h21.07547V55.95734a66.64985,66.64985,0,0,1-45.04034-22.77511v85.83158h45.04034V102.01746Z"/><path class="cls-1" d="M379.01866,56.1273V72.78374h20.22565v9.85789H379.01866v9.68791h20.22565v9.85789H379.01866v16.99635H424.059V33.18223A66.47149,66.47149,0,0,1,379.01866,56.1273Z"/></svg>